<svg id="Layer_1" data-name="Layer 1" xmlns="http://www.w3.org/2000/svg" viewBox="0 0 411 231.58"><defs><style>.cls-1{fill:#3ddb84;}</style></defs><path class="cls-1" d="M205.43,231.56H2.72c-2.92,0-2.87,0-2.61-3A194.16,194.16,0,0,1,6,195.44a201,201,0,0,1,97.11-124.7c1.39-.77,1.26-1.25.59-2.4Q87.29,40,70.89,11.59c-1.41-2.43-2-4.87-.76-7.5A6.79,6.79,0,0,1,76.43,0,7.14,7.14,0,0,1,83,3.92C87.48,11.68,92,19.4,96.44,27.14q10,17.37,20,34.76c.66,1.15,1.17,1.53,2.52.92a206.52,206.52,0,0,1,58.47-16.33,214.77,214.77,0,0,1,34.09-1.73c27.75.88,54.44,6.53,79.83,17.9,1.55.69,2.25.5,3.12-1,10.9-19,21.9-38,32.84-57,1.67-2.9,3.81-4.9,7.36-4.58,5.6.49,8.38,6,5.54,10.94-3.75,6.6-7.58,13.15-11.37,19.71q-11,19-21.95,37.89c-.6,1-.5,1.41.56,2A201,201,0,0,1,403,188.93a219,219,0,0,1,8,41c.16,1.48-.38,1.69-1.67,1.68-9,0-18,0-27.05,0Zm-77.59-75.67a17.06,17.06,0,1,0-17.08,17A17.14,17.14,0,0,0,127.84,155.89Zm155.16,0a17.06,17.06,0,1,0,34.12,0,17.06,17.06,0,1,0-34.12,0Z"/></svg>