<svg id="Layer_1" data-name="Layer 1" xmlns="http://www.w3.org/2000/svg" viewBox="0 0 618.99 450"><defs><style>.cls-1{fill:#ededed;}.cls-2{fill:#1e1e1e;}.cls-3{fill:#ac6631;}.cls-4{fill:#231f20;}</style></defs><rect class="cls-1" x="-92.21" y="0.46" width="799.75" height="449.07"/><path class="cls-2" d="M294,277.39l10.5-26h2.41l-10.43,26Zm5-8.07v-2.15h13.49v2.15Zm16,8.07-10.43-26h2.41l10.5,26Z"/><path class="cls-2" d="M321.4,277.39v-26h2.33v26Zm18.59,0L321.94,252.7l1.79-1.33,18,24.64Zm0,0v-26h2.33v26Z"/><path class="cls-2" d="M360.15,277.84a11.76,11.76,0,0,1-10.77-6.49,16.16,16.16,0,0,1,0-13.94,11.9,11.9,0,0,1,4.34-4.76,11.75,11.75,0,0,1,6.34-1.73,11.57,11.57,0,0,1,4.21.8A12.89,12.89,0,0,1,368,254a10.18,10.18,0,0,1,2.59,3.29l-1.93,1.23a8.83,8.83,0,0,0-2.14-2.81,10.57,10.57,0,0,0-3-1.9,9.45,9.45,0,0,0-8.55.77,9.84,9.84,0,0,0-3.52,4,12.92,12.92,0,0,0-1.28,5.86,13.11,13.11,0,0,0,1.28,5.91,9.78,9.78,0,0,0,3.56,4,9.41,9.41,0,0,0,5.19,1.45,8.29,8.29,0,0,0,3.47-.76,10.75,10.75,0,0,0,3-2.1,9.88,9.88,0,0,0,2.13-3.05l1.93,1.23a11.79,11.79,0,0,1-2.6,3.51,12.33,12.33,0,0,1-3.74,2.4A11,11,0,0,1,360.15,277.84Z"/><path class="cls-2" d="M375.83,277.39v-26h2.33v26Z"/><path class="cls-2" d="M385.45,277.39v-26h2.34v26Zm2.34-23.87v-2.15h12.36v2.15Zm0,11.53v-2.16h11.48v2.16Zm0,12.34v-2.16h12.36v2.16Z"/><path class="cls-2" d="M407.07,277.39v-26h2.34v26Zm18.6,0L407.62,252.7l1.79-1.33,18,24.64Zm0,0v-26H428v26Z"/><path class="cls-2" d="M432,253.52v-2.15h19v2.15Zm8.31,23.87V253.52h2.34v23.87Z"/><path class="cls-2" d="M294,317.72V288.67h6.55v29.05Zm3.91,0v-6.14h14.77v6.14Z"/><path class="cls-3" d="M316.16,294.82v-6.15H328.4a6.23,6.23,0,0,1,6.31,6.15H316.16Z"/><path class="cls-2" d="M353.43,318.22a15.24,15.24,0,0,1-7.75-1.93,13.93,13.93,0,0,1-5.27-5.31,16.8,16.8,0,0,1,0-15.56,13.79,13.79,0,0,1,5.27-5.31,15.24,15.24,0,0,1,7.75-1.93,14.26,14.26,0,0,1,4.94.81,12.69,12.69,0,0,1,3.89,2.22,13.09,13.09,0,0,1,2.77,3.23l-5.41,3.32A6.92,6.92,0,0,0,358,296a7.84,7.84,0,0,0-2.18-1.23,6.91,6.91,0,0,0-2.4-.43,8,8,0,0,0-4.25,1.12,7.72,7.72,0,0,0-2.91,3.13,9.73,9.73,0,0,0-1.06,4.63,10.07,10.07,0,0,0,1,4.62,7.69,7.69,0,0,0,2.93,3.18,8.39,8.39,0,0,0,4.43,1.16,7.32,7.32,0,0,0,3.38-.75,5.82,5.82,0,0,0,2.32-2.07,5.62,5.62,0,0,0,.85-3.11l6.23-1.08a14.28,14.28,0,0,1-1.67,7.16,10.88,10.88,0,0,1-4.56,4.41A14.34,14.34,0,0,1,353.43,318.22Zm.2-11.29v-5.14h12.74v3.94l-3.66,1.2Z"/><path class="cls-2" d="M366.21,317.72l11.07-29.05h6.51l-10.66,29.05Zm5.21-5.52v-5.89h18.76v5.89Zm17,5.52-10.67-29.05h6.52l11.06,29.05Z"/><path class="cls-2" d="M410.16,318.22a14.26,14.26,0,0,1-7.47-1.93A13.82,13.82,0,0,1,397.6,311a17.28,17.28,0,0,1,0-15.56,13.69,13.69,0,0,1,5.09-5.31,15.31,15.31,0,0,1,13.14-.83,13.22,13.22,0,0,1,4.48,3.09,14.06,14.06,0,0,1,2.91,4.6l-6.15,2.12a7.91,7.91,0,0,0-1.65-2.53,7.28,7.28,0,0,0-2.36-1.66,7.09,7.09,0,0,0-2.9-.58,7.18,7.18,0,0,0-4,1.12,7.46,7.46,0,0,0-2.73,3.13,10.47,10.47,0,0,0-1,4.63,10.33,10.33,0,0,0,1,4.62,7.76,7.76,0,0,0,2.77,3.16,7.31,7.31,0,0,0,4,1.14,6.56,6.56,0,0,0,5.23-2.37,11.64,11.64,0,0,0,1.64-2.57l6.15,2.12a13.46,13.46,0,0,1-7.41,7.8A14.46,14.46,0,0,1,410.16,318.22Z"/><path class="cls-2" d="M434.61,305.77l-10.25-17.1h7.44l9.12,15.77Zm6.11,0-6.31-1.33,9.11-15.77H451Zm-6.31,12V303.78H441v13.94Z"/><polygon class="cls-2" points="334.81 311.58 334.81 317.72 316.05 317.72 316.05 300.13 332.65 300.13 332.65 306.06 322.61 306.06 322.61 311.58 334.81 311.58"/><path class="cls-4" d="M376.71,225v12.46H289.3V151.93h0a12.46,12.46,0,0,1,12.46,12.47V225h62.49a88.83,88.83,0,1,0-100.14,88.1V194.82l-44.87,77.67h0a12.44,12.44,0,0,1-4.55-17l46.78-81a9.14,9.14,0,0,1,7.91-4.56h7.19V326.29h-1.14a103.2,103.2,0,0,1-11.32-.63A101.29,101.29,0,1,1,376.71,225Z"/></svg>