<svg xmlns="http://www.w3.org/2000/svg" shape-rendering="geometricPrecision" text-rendering="geometricPrecision" image-rendering="optimizeQuality" fill-rule="evenodd" clip-rule="evenodd" viewBox="0 0 512 313.94"><g fill-rule="nonzero"><path fill="#202124" d="M452.67 79.41c0-13.44 9.75-24.1 22.04-24.1 12.3 0 21.31 10.33 21.31 24.1 0 13.76-9.1 24.42-21.31 24.42-12.21 0-22.04-10.82-22.04-24.42zm-42.2 37.53h17.21v-74.9h-17.21v74.9zm-2.71-99.89c0 6.47 5.25 11.71 11.39 11.71 6.15 0 11.23-5.24 11.23-11.71 0-5.99-5.08-11.07-11.23-11.07-6.14 0-11.39 5.08-11.39 11.07zm-67.52 62.19c0-13.44 9.92-23.93 22.62-23.93 12.7 0 22.61 10.49 22.61 23.93s-9.99 24.59-22.61 24.59c-12.62-.09-22.62-10.98-22.62-24.59zm-17.54 0c0 22.46 17.7 40.16 40.16 40.16 22.45 0 40.15-17.7 40.15-40.16 0-22.45-17.37-39.5-40.15-39.5-22.78-.08-40.16 17.13-40.16 39.5zm-46.54 37.7h17.21V77.69c0-15.57 8.27-22.46 22.04-22.46 2.54 0 4.51.17 6.31.58V40.65c-1.8-.58-4.92-1.07-8.36-1.07-23.35 0-37.12 14.67-37.12 38.02v39.34h-.08zm-69.08-37.53c0-13.44 9.75-24.1 22.04-24.1s21.31 10.33 21.31 24.1c0 13.76-9.1 24.42-21.31 24.42-12.21 0-22.04-10.82-22.04-24.42zm-17.54 0c0 21.71 17.37 39.99 37.86 39.99 8.52 0 16.31-3.45 20.98-9.1h.74v6.72h17.21V0h-17.21v48.19h-.74c-4.51-5.41-12.29-8.53-20.98-8.53-20.57 0-37.86 18.11-37.86 39.75zm-75.47 37.53h17.21V73.1c0-10.49 7.05-17.79 16.8-17.79s16.8 7.38 16.8 17.79v43.84h17.2V73.1c0-18.28-14.5-33.44-34-33.44-19.51 0-34.01 15.16-34.01 33.44v43.84zM34.99 72.03l18.6-53.18h.9L73.1 72.03H34.99zM0 116.94h19.5l9.75-27.86H79l9.75 27.86h19.34L64.82 0H43.27L0 116.94zm473.07 2.46c8.53 0 16.31-3.45 20.98-9.1h.74v6.72H512V0h-17.21v48.19h-.74c-4.5-5.41-12.29-8.53-20.97-8.53-20.65 0-37.86 18.11-37.86 39.66 0 21.64 17.37 40.08 37.86 40.08h-.01z"/><path fill="#34A853" d="M390.72 307.95c-.08-.57-.16-1.06-.25-1.64-.57-3.36-1.23-6.71-2.05-10.07a125.64 125.64 0 00-5.32-16.88c-1.81-4.68-3.85-9.18-6.15-13.53-2.95-5.57-6.23-10.98-9.91-16.14-4.51-6.31-9.51-12.13-14.92-17.62-2.29-2.29-4.67-4.5-7.13-6.55-5.32-4.59-10.98-8.77-16.96-12.46.08-.08.08-.16.16-.25 2.71-4.75 5.49-9.42 8.2-14.17 2.7-4.59 5.32-9.18 8.03-13.85 1.88-3.28 3.85-6.64 5.73-9.92.5-.82.82-1.55 1.07-2.46.74-2.29.82-4.75.16-7.04-.16-.58-.32-1.15-.57-1.64-.25-.58-.49-1.07-.82-1.56-.98-1.72-2.46-3.2-4.34-4.26-1.64-.98-3.44-1.56-5.33-1.72-.82-.08-1.56-.08-2.38 0-.65.08-1.31.16-1.88.33-2.29.57-4.34 1.8-5.98 3.6-.58.66-1.15 1.4-1.56 2.13-1.88 3.28-3.85 6.64-5.73 9.92l-8.03 13.85c-2.71 4.75-5.5 9.42-8.2 14.17-.33.5-.57 1.07-.9 1.56-.41-.16-.82-.33-1.23-.49-15.08-5.74-31.39-8.85-48.51-8.85h-1.4a136.55 136.55 0 00-43.43 7.54c-1.55.57-3.11 1.15-4.67 1.72-.24-.49-.57-.98-.82-1.48-2.7-4.75-5.49-9.42-8.19-14.17-2.71-4.59-5.33-9.18-8.03-13.85-1.89-3.28-3.85-6.64-5.74-9.92-.49-.82-.98-1.47-1.56-2.13a12.3 12.3 0 00-5.98-3.6c-.65-.17-1.31-.25-1.88-.33-.82-.08-1.56-.08-2.38 0-1.88.16-3.69.74-5.32 1.72a12.675 12.675 0 00-4.35 4.26c-.33.49-.57.98-.82 1.56-.24.57-.41 1.06-.57 1.64-.58 2.29-.58 4.67.16 7.04.25.82.66 1.64 1.07 2.46 1.88 3.28 3.85 6.64 5.73 9.92 2.71 4.59 5.33 9.18 8.03 13.85 2.71 4.75 5.49 9.42 8.2 14.17l.08.09c-5.49 3.44-10.73 7.21-15.73 11.39-2.95 2.46-5.82 5.08-8.53 7.78-5.49 5.41-10.4 11.31-14.91 17.62-3.69 5.16-6.97 10.49-9.91 16.14-2.3 4.35-4.35 8.85-6.15 13.52-2.13 5.49-3.93 11.15-5.33 16.89-.82 3.27-1.47 6.63-2.05 10.07-.08.58-.16 1.07-.24 1.64-.33 1.97-.58 3.94-.82 5.99h270.83c0-2.05-.24-4.02-.49-5.99z"/><path fill="#202124" d="M326.47 276.4c5.41-3.6 6.23-11.96 1.72-18.6-4.42-6.72-12.45-9.17-17.86-5.57-5.41 3.61-6.23 11.96-1.72 18.6 4.43 6.72 12.46 9.18 17.86 5.57zm-122.75-5.49c4.42-6.72 3.69-14.99-1.72-18.6-5.41-3.6-13.44-1.14-17.87 5.58-4.42 6.71-3.68 14.99 1.72 18.6 5.41 3.6 13.36 1.06 17.87-5.58z"/></g></svg>