<?xml version="1.0" encoding="utf-8"?>
<!-- Generator: Adobe Illustrator 26.0.1, SVG Export Plug-In . SVG Version: 6.00 Build 0)  -->
<svg version="1.1" id="Layer_1" xmlns="http://www.w3.org/2000/svg" xmlns:xlink="http://www.w3.org/1999/xlink" x="0px" y="0px"
	 viewBox="0 0 411 231.6" style="enable-background:new 0 0 411 231.6;" xml:space="preserve">
<style type="text/css">
	.st0{fill:#F0F8FF;}
</style>
<path class="st0" d="M205.4,231.6H2.7c-2.9,0-2.9,0-2.6-3c1-11.2,3-22.3,5.9-33.1c14-53.1,49.1-98.1,97.1-124.7
	c1.4-0.8,1.3-1.2,0.6-2.4C92.8,49.4,81.8,30.5,70.9,11.6c-1.4-2.4-2-4.9-0.8-7.5C71.2,1.6,73.7,0,76.4,0c2.8-0.1,5.3,1.5,6.6,3.9
	c4.5,7.8,9,15.5,13.4,23.2c6.7,11.6,13.3,23.2,20,34.8c0.7,1.2,1.2,1.5,2.5,0.9c18.6-8.3,38.3-13.8,58.5-16.3
	c11.3-1.5,22.7-2.1,34.1-1.7c27.8,0.9,54.4,6.5,79.8,17.9c1.5,0.7,2.2,0.5,3.1-1c10.9-19,21.9-38,32.8-57c1.7-2.9,3.8-4.9,7.4-4.6
	c5.6,0.5,8.4,6,5.5,10.9c-3.8,6.6-7.6,13.1-11.4,19.7c-7.3,12.7-14.6,25.3-22,37.9c-0.6,1-0.5,1.4,0.6,2
	c46.1,25.4,80.4,67.9,95.6,118.3c4,13.4,6.6,27.1,8,41c0.2,1.5-0.4,1.7-1.7,1.7c-9,0-18,0-27,0L205.4,231.6z M127.8,155.9
	c0-9.4-7.6-17.1-17-17.1c-9.4,0-17.1,7.6-17.1,17c0,9.4,7.6,17.1,17,17.1c0,0,0,0,0,0C120.1,172.9,127.8,165.3,127.8,155.9z
	 M283,155.9c0,9.4,7.6,17.1,17.1,17.1s17.1-7.6,17.1-17.1c0,0,0,0,0,0c0-9.4-7.6-17.1-17.1-17.1S283,146.5,283,155.9
	C283,155.9,283,155.9,283,155.9z"/>
</svg>
