<?xml version="1.0" encoding="utf-8"?>
<!-- Generator: Adobe Illustrator 26.0.1, SVG Export Plug-In . SVG Version: 6.00 Build 0)  -->
<svg version="1.1"
	 id="Layer_1" image-rendering="optimizeQuality" shape-rendering="geometricPrecision" text-rendering="geometricPrecision"
	 xmlns="http://www.w3.org/2000/svg" xmlns:xlink="http://www.w3.org/1999/xlink" x="0px" y="0px" viewBox="0 0 294 511.1"
	 style="enable-background:new 0 0 294 511.1;" xml:space="preserve">
<style type="text/css">
	.st0{fill-rule:evenodd;clip-rule:evenodd;fill:#F0F8FF;}
</style>
<path class="st0" d="M121,80.6c0-5,1.4-9.7,3.9-13.7h44.1c2.5,4,3.9,8.7,3.9,13.7c0,14.3-11.6,26-26,26S121,94.9,121,80.6z
	 M61.5,210.2c-3.6,0-6.5-2.9-6.5-6.5c0-3.6,2.9-6.5,6.5-6.5h171c3.6,0,6.5,2.9,6.5,6.5c0,3.6-2.9,6.5-6.5,6.5H61.5z M61.5,248.3
	c-3.6,0-6.5-2.9-6.5-6.5c0-3.6,2.9-6.5,6.5-6.5h164.7c3.6,0,6.5,2.9,6.5,6.5c0,3.6-2.9,6.5-6.5,6.5H61.5z M61.5,286.4
	c-3.6,0-6.5-2.9-6.5-6.5s2.9-6.5,6.5-6.5h140.7c3.6,0,6.5,2.9,6.5,6.5c0,3.6-2.9,6.5-6.5,6.5H61.5z M61.5,362.6
	c-3.6,0-6.5-2.9-6.5-6.5s2.9-6.5,6.5-6.5h44.9c3.6,0,6.5,2.9,6.5,6.5s-2.9,6.5-6.5,6.5H61.5z M61.5,324.5c-3.6,0-6.5-2.9-6.5-6.5
	s2.9-6.5,6.5-6.5H133c3.6,0,6.5,2.9,6.5,6.5c0,3.6-2.9,6.5-6.5,6.5C133,324.5,61.5,324.5,61.5,324.5z M61.8,0h170.4
	c28.3,0,51.2,23,51.2,51.3v371.9c0,28.3-22.9,51.3-51.2,51.3H61.8c-28.3,0-51.3-23-51.3-51.3v-372C10.6,22.8,33.5,0,61.8,0z
	 M28.2,403.2h237.5V50.8H28.2V403.2L28.2,403.2z M146.9,419.3c11.6,0,21.1,9.3,21.1,21.1c0,11.6-9.3,21.1-21.1,21.1
	c-11.6,0-21.1-9.3-21.1-21.1C125.9,428.7,135.2,419.3,146.9,419.3z M177.6,362.1c2.3,2,2.5,5.4,0.5,7.7c-2,2.3-5.4,2.5-7.7,0.5
	l-17.2-15.1c-2.3-2-2.5-5.4-0.5-7.7l0.6-0.5l17.2-15c2.3-2,5.7-1.8,7.7,0.5c0,0,0,0,0,0c2,2.3,1.8,5.7-0.5,7.7c0,0,0,0,0,0l-12.5,11
	L177.6,362.1L177.6,362.1z M218.9,370.3c-2.3,2-5.7,1.8-7.7-0.5c-2-2.3-1.8-5.7,0.5-7.7l12.5-11l-12.5-11c-2.3-2-2.5-5.4-0.5-7.7
	c2-2.3,5.4-2.5,7.7-0.5l0,0l17.2,15l0.5,0.5c2,2.3,1.8,5.7-0.5,7.7c0,0,0,0,0,0L218.9,370.3L218.9,370.3z M193.7,328.9
	c0.7-2.9,3.6-4.8,6.6-4.1c2.9,0.7,4.8,3.6,4.1,6.6l-9.8,42.1c-0.7,2.9-3.6,4.8-6.6,4.1c-2.9-0.7-4.8-3.6-4.1-6.6L193.7,328.9
	L193.7,328.9z M222,81.5V87c0,5.1-4.2,9.3-9.3,9.3h-9.5c-1.2,5.3-3.1,10.4-5.7,15.1l6.3,6.3c3.6,3.6,3.6,9.5,0,13.1l-7.7,7.7
	c-3.6,3.6-9.5,3.6-13.1,0l-5.8-5.8c-4.8,3-10.1,5.3-15.6,6.8v7.9c0,5.1-4.2,9.3-9.3,9.3h-10.9c-5.1,0-9.3-4.2-9.3-9.3v-7.8
	c-5.6-1.4-10.9-3.7-15.8-6.7l-5.6,5.6c-3.6,3.6-9.5,3.6-13.1,0l-7.7-7.7c-3.6-3.6-3.6-9.5,0-13.1l6.1-6.1c-2.7-4.8-4.7-10-5.9-15.3
	h-9.1c-5.1,0-9.3-4.2-9.3-9.3V76.1c0-4.9,3.9-9,8.8-9.2h31c-1.5,4.1-2.2,8.4-2.2,12.8c0,0.6,0,1.3,0,1.9c0,0.6,0,1.3,0,1.9
	c0,20.6,16.7,37.2,37.2,37.2S184,104,184,83.5c0-0.6,0-1.3,0-1.9c0-0.6,0-1.3,0-1.9c0-4.5-0.8-8.8-2.2-12.8h31.4
	c4.9,0.2,8.8,4.3,8.8,9.2L222,81.5L222,81.5z"/>
</svg>
