<?xml version="1.0" encoding="utf-8"?>
<!-- Generator: Adobe Illustrator 26.0.1, SVG Export Plug-In . SVG Version: 6.00 Build 0)  -->
<svg version="1.1"
	 id="Layer_1" shape-rendering="geometricPrecision" image-rendering="optimizeQuality" text-rendering="geometricPrecision"
	 xmlns="http://www.w3.org/2000/svg" xmlns:xlink="http://www.w3.org/1999/xlink" x="0px" y="0px" viewBox="0 0 64 64"
	 style="enable-background:new 0 0 64 64;" xml:space="preserve">
<style type="text/css">
	.st0{fill-rule:evenodd;clip-rule:evenodd;fill:#F0F8FF;}
</style>
<path class="st0" d="M18.6,12c1.9,0,3.6,0.2,5.1,0.5c1.6,0.3,2.9,0.9,4,1.6c1.1,0.8,1.9,1.8,2.6,3c0.6,1.2,0.9,2.8,0.9,4.6
	c0,2-0.4,3.6-1.4,5c-0.9,1.3-2.2,2.4-4,3.3c2.4,0.7,4.2,1.9,5.4,3.7c1.2,1.8,1.8,3.9,1.8,6.3c0,2-0.4,3.7-1.1,5.2
	c-0.8,1.5-1.8,2.6-3.1,3.6c-1.3,0.9-2.8,1.6-4.5,2c-1.7,0.4-3.4,0.7-5.1,0.7H0V12L18.6,12L18.6,12L18.6,12z M41.8,15.1h16V19l-16,0
	L41.8,15.1C41.8,15.1,41.8,15.1,41.8,15.1z M45.3,44.5c1.2,1.1,2.9,1.7,5.1,1.7c1.6,0,3-0.4,4.1-1.2c1.1-0.8,1.8-1.6,2.1-2.5l6.9,0
	c-1.1,3.4-2.8,5.9-5.1,7.4c-2.3,1.5-5,2.2-8.2,2.2c-2.3,0-4.3-0.4-6.1-1.1c-1.8-0.7-3.3-1.7-4.6-3.1c-1.2-1.3-2.2-2.9-2.9-4.7
	c-0.7-1.8-1-3.9-1-6.1c0-2.1,0.4-4.1,1-6c0.7-1.9,1.7-3.4,3-4.8c1.3-1.3,2.8-2.4,4.6-3.2c1.8-0.8,3.8-1.2,6-1.2
	c2.4,0,4.5,0.5,6.3,1.4c1.8,0.9,3.3,2.2,4.4,3.8c1.2,1.6,2,3.4,2.5,5.4c0.5,2,0.7,4.1,0.5,6.4H43.4C43.4,41.2,44.1,43.3,45.3,44.5
	C45.3,44.5,45.3,44.5,45.3,44.5z M54.3,29.5c-0.9-1-2.5-1.6-4.4-1.6c-1.3,0-2.3,0.2-3.1,0.6c-0.8,0.4-1.5,0.9-2,1.6
	c-0.5,0.6-0.9,1.3-1,2c-0.2,0.7-0.3,1.3-0.4,1.9l12.8,0C55.9,32,55.2,30.5,54.3,29.5L54.3,29.5L54.3,29.5z M17.4,27.8
	c1.5,0,2.8-0.4,3.8-1.1c1-0.7,1.5-1.9,1.5-3.6c0-0.9-0.2-1.7-0.5-2.3c-0.3-0.6-0.8-1.1-1.3-1.4c-0.6-0.3-1.2-0.6-1.9-0.7
	c-0.7-0.1-1.5-0.2-2.2-0.2H8.7v9.2L17.4,27.8L17.4,27.8z M17.9,44.6c0.9,0,1.7-0.1,2.4-0.3c0.8-0.2,1.5-0.4,2-0.8
	c0.6-0.4,1.1-0.9,1.4-1.6c0.4-0.7,0.5-1.5,0.5-2.5c0-2-0.6-3.5-1.7-4.4c-1.1-0.9-2.6-1.3-4.5-1.3H8.7v10.8L17.9,44.6L17.9,44.6
	L17.9,44.6z"/>
</svg>
