<?xml version="1.0" encoding="utf-8"?>
<!-- Generator: Adobe Illustrator 26.0.1, SVG Export Plug-In . SVG Version: 6.00 Build 0)  -->
<svg version="1.1" id="Layer_1" xmlns="http://www.w3.org/2000/svg" xmlns:xlink="http://www.w3.org/1999/xlink" x="0px" y="0px"
	 viewBox="0 0 122.9 122.9" style="enable-background:new 0 0 122.9 122.9;" xml:space="preserve">
<style type="text/css">
	.st0{fill:#F0F8FF;}
</style>
<g>
	<path class="st0" d="M72.1,8.3c7.3,1.4,14,4.3,19.9,8.4c4.1-2.5,9.5-2,13.1,1.5c3.6,3.6,4.1,9.1,1.5,13.2c4,6,6.8,12.7,8.2,20
		c4.7,1.1,8.2,5.3,8.2,10.3c0,5.1-3.5,9.3-8.3,10.3c-1.4,7.3-4.3,14-8.4,19.9c2.5,4.1,2,9.5-1.5,13.1c-3.6,3.6-9.1,4.1-13.2,1.5
		c-5.9,4-12.7,6.8-20,8.2c-1.1,4.7-5.3,8.2-10.3,8.2c-5,0-9.3-3.5-10.3-8.3c-7.3-1.4-14-4.3-19.9-8.4c-4.1,2.5-9.5,2-13.1-1.5
		c-3.6-3.6-4.1-9.1-1.5-13.2c-4-5.9-6.8-12.7-8.2-20C3.5,70.4,0,66.2,0,61.2c0-5,3.5-9.3,8.3-10.4c1.4-7.3,4.3-14,8.4-19.9
		c-2.5-4.1-2-9.5,1.5-13.1c3.6-3.6,9.1-4.1,13.2-1.5c6-4,12.7-6.8,20-8.2C52.5,3.5,56.7,0,61.7,0C66.8,0,71,3.5,72.1,8.3L72.1,8.3z
		 M101.2,35.6c-3.8,1.4-8.2,0.6-11.2-2.5c-3.1-3-3.9-7.5-2.4-11.3c-4.9-3.2-10.4-5.6-16.3-6.9c-1.7,3.6-5.4,6.2-9.7,6.2
		c-4.3,0-8-2.6-9.7-6.3c-5.9,1.2-11.5,3.5-16.4,6.7c1.4,3.8,0.6,8.2-2.5,11.2c-3,3-7.5,3.9-11.3,2.4c-3.2,4.9-5.6,10.4-6.9,16.3
		c3.6,1.7,6.2,5.4,6.2,9.7c0,4.3-2.6,8-6.3,9.7c1.2,5.9,3.5,11.5,6.7,16.4c3.8-1.4,8.2-0.6,11.2,2.4c3,3.1,3.9,7.5,2.4,11.3
		c4.9,3.2,10.4,5.6,16.3,6.8c1.7-3.7,5.4-6.2,9.7-6.2c4.3,0,8,2.6,9.7,6.3c5.9-1.2,11.5-3.5,16.4-6.7c-1.4-3.8-0.6-8.2,2.4-11.2
		c3.1-3.1,7.5-3.9,11.3-2.4c3.2-4.9,5.6-10.4,6.8-16.3c-3.7-1.7-6.2-5.4-6.2-9.7c0-4.3,2.6-8,6.3-9.7
		C106.7,46.1,104.4,40.5,101.2,35.6L101.2,35.6z M84.8,49.3l0.1,26.1c0,1.3-0.8,2.3-1.9,2.8v0l-20.9,8.4c-0.4,0.2-0.8,0.2-1.2,0.2
		c0,0-0.1,0-0.1,0c-0.2,0-0.4,0.1-0.5,0.1c-0.4,0-0.8-0.1-1.2-0.2l-19.3-8.1v0c-1.1-0.5-1.9-1.6-1.9-2.9L38,49.9c0-0.2,0-0.5,0-0.8
		c0-0.4,0.1-0.7,0.2-1c0.3-0.8,1-1.4,1.7-1.7l0,0l20.1-8.1c0.8-0.3,1.7-0.3,2.5,0l20.1,7.3c1.2,0.4,2,1.5,2,2.7
		C84.8,48.7,84.8,49,84.8,49.3L84.8,49.3z M57.6,81.7l0.2-23l-16.1-7l-0.3,23.1L57.6,81.7L57.6,81.7z M81.4,51.7l-18,7l0.1,23
		l18-6.7L81.4,51.7L81.4,51.7L81.4,51.7z"/>
</g>
</svg>
