<?xml version="1.0" encoding="utf-8"?>
<!-- Generator: Adobe Illustrator 26.0.1, SVG Export Plug-In . SVG Version: 6.00 Build 0)  -->
<svg version="1.1" id="Layer_1" xmlns="http://www.w3.org/2000/svg" xmlns:xlink="http://www.w3.org/1999/xlink" x="0px" y="0px"
	 viewBox="0 0 116.3 122.9" style="enable-background:new 0 0 116.3 122.9;" xml:space="preserve">
<style type="text/css">
	.st0{fill-rule:evenodd;clip-rule:evenodd;fill:#F0F8FF;}
</style>
<g>
	<path class="st0" d="M42.8,22.5L77.5,8l29.9,30.8L93.4,73.3c-23.6,6.6-45.7,16.1-66.4,28L22.8,96L64,55.1c0.8,0.4,1.7,0.6,2.6,0.6
		h0c3.6,0,6.4-2.9,6.4-6.4c0-3.5-2.9-6.4-6.4-6.4c-3.5,0-6.4,2.9-6.4,6.4c0,1.2,0.3,2.2,0.8,3.2L20.2,93l-5.7-5.2
		C27,67.4,36.5,45.7,42.8,22.5L42.8,22.5z M87.4,0l28.9,29.6l-2.6,2.6l-2.6,2.6L82.1,5.1l2.6-2.6L87.4,0L87.4,0z M19,107.4
		c13.6,12.5,21.5,7,32.8-0.7c9.3-6.4,20.6-14.1,37.8-16.6c1.2-4.1,5-7.1,9.5-7.1c5.5,0,9.9,4.4,9.9,9.9c0,5.5-4.4,9.9-9.9,9.9
		c-3.8,0-7.2-2.2-8.8-5.4c-15.3,2.4-25.7,9.5-34.3,15.4c-14.5,9.9-24.6,16.8-42.3-0.2c-1.2,0.5-2.5,0.7-3.7,0.7h0
		c-5.5,0-9.9-4.4-9.9-9.9c0-5.5,4.4-9.9,9.9-9.9s9.9,4.4,9.9,9.9v0C19.8,104.7,19.5,106.1,19,107.4L19,107.4L19,107.4z"/>
</g>
</svg>
