<svg xmlns="http://www.w3.org/2000/svg" xmlns:xlink="http://www.w3.org/1999/xlink" width="1080" zoomAndPan="magnify" viewBox="0 0 810 809.999993" height="1080" preserveAspectRatio="xMidYMid meet" version="1.0"><path fill="#f0f8ff" d="M 679.820312 202.21875 C 647.898438 202.21875 621.964844 228.09375 621.964844 259.90625 L 621.964844 262.785156 L 632.980469 549.644531 L 726.660156 549.644531 L 737.679688 262.277344 C 738.300781 246.402344 732.59375 231.429688 721.574219 220.015625 C 710.558594 208.546875 695.699219 202.21875 679.820312 202.21875 " fill-opacity="1" fill-rule="nonzero"/><path fill="#f0f8ff" d="M 92.378906 393.585938 L 222.558594 292.335938 C 228.886719 287.421875 237.984375 288.609375 242.84375 294.878906 C 247.757812 301.207031 246.628906 310.246094 240.300781 315.164062 L 124.8125 405 L 240.300781 494.835938 C 246.628906 499.753906 247.757812 508.792969 242.84375 515.121094 C 240.015625 518.792969 235.722656 520.714844 231.429688 520.714844 C 228.320312 520.714844 225.214844 519.699219 222.558594 517.664062 L 92.378906 416.414062 C 88.875 413.644531 86.785156 409.464844 86.785156 405 C 86.785156 400.535156 88.875 396.355469 92.378906 393.585938 Z M 304.371094 545.519531 L 391.15625 256.234375 C 393.417969 248.546875 401.496094 244.199219 409.125 246.515625 C 416.808594 248.832031 421.160156 256.855469 418.84375 264.480469 L 332.058594 553.765625 C 330.191406 560.039062 324.429688 564.105469 318.214844 564.105469 C 316.859375 564.105469 315.445312 563.882812 314.089844 563.484375 C 306.40625 561.167969 302.054688 553.144531 304.371094 545.519531 Z M 0 665.355469 C 0 697.28125 25.933594 723.214844 57.855469 723.214844 L 515.402344 723.214844 C 518.625 703.042969 520.714844 679.144531 520.714844 650.894531 L 520.714844 593.035156 C 520.714844 569.078125 540.152344 549.644531 564.105469 549.644531 L 604.054688 549.644531 L 599.871094 440.539062 L 500.65625 517.664062 C 498 519.699219 494.894531 520.714844 491.785156 520.714844 C 487.492188 520.714844 483.199219 518.792969 480.371094 515.121094 C 475.457031 508.792969 476.585938 499.753906 482.914062 494.835938 L 598.460938 405 L 482.914062 315.164062 C 476.585938 310.246094 475.457031 301.207031 480.371094 294.878906 C 485.230469 288.609375 494.328125 287.421875 500.65625 292.335938 L 597.105469 367.3125 L 593.035156 259.90625 C 593.035156 212.160156 631.964844 173.289062 679.820312 173.289062 C 695.359375 173.289062 710.164062 177.355469 723.214844 184.929688 L 723.214844 115.714844 L 0 115.714844 L 0 665.355469 " fill-opacity="1" fill-rule="nonzero"/><path fill="#f0f8ff" d="M 810 593.035156 C 810 585.070312 803.503906 578.570312 795.535156 578.570312 L 564.105469 578.570312 C 556.140625 578.570312 549.644531 585.070312 549.644531 593.035156 L 549.644531 636.429688 L 810 636.429688 L 810 593.035156 " fill-opacity="1" fill-rule="nonzero"/><path fill="#f0f8ff" d="M 549.472656 665.355469 C 547.664062 737.679688 532.523438 782.539062 519.640625 807.851562 C 519.527344 808.078125 519.246094 808.644531 519.699219 809.378906 L 597.5 810 L 617.5 760.5625 C 620.609375 752.765625 628.011719 747.734375 636.429688 747.734375 C 644.847656 747.734375 652.25 752.765625 655.355469 760.5625 L 675.359375 810 L 698.128906 810 L 705.640625 788.019531 C 708.128906 780.621094 714.511719 775.308594 722.253906 774.292969 C 723.214844 774.121094 724.175781 774.066406 725.078125 774.066406 C 731.800781 774.066406 738.128906 777.398438 741.972656 783.160156 L 759.828125 809.886719 L 785.875 810 C 786.324219 810 786.890625 809.832031 787.117188 809.265625 C 793.671875 794.347656 808.363281 751.351562 809.886719 665.355469 L 549.472656 665.355469 " fill-opacity="1" fill-rule="nonzero"/><path fill="#f0f8ff" d="M 57.855469 28.929688 L 72.320312 28.929688 C 80.289062 28.929688 86.785156 35.425781 86.785156 43.394531 C 86.785156 51.359375 80.289062 57.855469 72.320312 57.855469 L 57.855469 57.855469 C 49.890625 57.855469 43.394531 51.359375 43.394531 43.394531 C 43.394531 35.425781 49.890625 28.929688 57.855469 28.929688 Z M 130.179688 28.929688 L 144.644531 28.929688 C 152.609375 28.929688 159.105469 35.425781 159.105469 43.394531 C 159.105469 51.359375 152.609375 57.855469 144.644531 57.855469 L 130.179688 57.855469 C 122.210938 57.855469 115.714844 51.359375 115.714844 43.394531 C 115.714844 35.425781 122.210938 28.929688 130.179688 28.929688 Z M 202.5 28.929688 L 216.964844 28.929688 C 224.929688 28.929688 231.429688 35.425781 231.429688 43.394531 C 231.429688 51.359375 224.929688 57.855469 216.964844 57.855469 L 202.5 57.855469 C 194.535156 57.855469 188.035156 51.359375 188.035156 43.394531 C 188.035156 35.425781 194.535156 28.929688 202.5 28.929688 Z M 361.605469 28.929688 L 593.035156 28.929688 C 601.003906 28.929688 607.5 35.425781 607.5 43.394531 C 607.5 51.359375 601.003906 57.855469 593.035156 57.855469 L 361.605469 57.855469 C 353.640625 57.855469 347.144531 51.359375 347.144531 43.394531 C 347.144531 35.425781 353.640625 28.929688 361.605469 28.929688 Z M 0 86.785156 L 723.214844 86.785156 L 723.214844 57.855469 C 723.214844 25.933594 697.28125 0 665.355469 0 L 57.855469 0 C 25.933594 0 0 25.933594 0 57.855469 L 0 86.785156 " fill-opacity="1" fill-rule="nonzero"/></svg>