<svg id="Layer_1" data-name="Layer 1" xmlns="http://www.w3.org/2000/svg" viewBox="0 0 269 71.6"><defs><style>.cls-1,.cls-2{fill:#ee445b;}.cls-2{fill-rule:evenodd;}</style></defs><path class="cls-1" d="M53.34,49.51a5.72,5.72,0,0,0-2.22-.45,5.5,5.5,0,0,0-3.33,1.12,18,18,0,0,1-11,3.72c-8.9,0-16-5.25-17.57-13.72L8,40.69c1.8,14.08,13.49,24,28,24.38A29.23,29.23,0,0,0,54.5,59.14,5.61,5.61,0,0,0,53.34,49.51ZM35.45,17.75A18.09,18.09,0,0,1,47.8,21.42,5.59,5.59,0,0,0,56.73,17a5.59,5.59,0,0,0-2.25-4.5A29.1,29.1,0,0,0,36.81,6.51C21.94,6.51,9.89,16.38,8,30.73l11.23.58C20.7,23.34,27.22,18.35,35.45,17.75Z"/><path class="cls-2" d="M24.45,41.16c1.2,2.83,2.78,4.26,6.39,4H45.56c1.3,0,1.46-3.81,0-4l-13-.15c-1.41,0-1.46-3.41,0-3.4l11.76.15c1.39,0,1.53-3.65,0-3.7-2.16,0-9.6-.15-11.76-.15-1.36.18-1.54-3,0-2.89l13.18.15c1-.08,1.43-1.93.94-3.2s-1.61-1.07-2.52-1.13L29.87,26.4a5.4,5.4,0,0,0-5.57,4.41,12.25,12.25,0,0,0-.32,2L2.33,31.66C1.05,31.59,0,33.28,0,35.26v.45c0,2.23,1.18,4.11,2.63,4l21.36-1a9.12,9.12,0,0,0,.46,2.38Z"/><path class="cls-1" d="M82,49.73a15,15,0,0,1-5.6-1,13.12,13.12,0,0,1-4.45-2.85A13.28,13.28,0,0,1,69,41.52a14.67,14.67,0,0,1,0-10.9,13.14,13.14,0,0,1,3-4.33,13.33,13.33,0,0,1,4.47-2.86,15,15,0,0,1,5.6-1,15.4,15.4,0,0,1,5.49,1,11.44,11.44,0,0,1,3.32,1.95,1.31,1.31,0,0,1,.08,1.92h0a1.28,1.28,0,0,1-1.72.08,9.87,9.87,0,0,0-2.8-1.65,12.6,12.6,0,0,0-8.78.08A10.71,10.71,0,0,0,74,28.11a11.51,11.51,0,0,0-2.4,12.39A11,11,0,0,0,74,44a10.71,10.71,0,0,0,3.61,2.34,12.45,12.45,0,0,0,8.78.06,9.72,9.72,0,0,0,2.8-1.67,1.28,1.28,0,0,1,1.72.09h0a1.3,1.3,0,0,1-.08,1.91,11.15,11.15,0,0,1-3.32,2A15.09,15.09,0,0,1,82,49.73Z"/><path class="cls-1" d="M104.67,49.69a10.4,10.4,0,0,1-5.26-1.32,9.72,9.72,0,0,1-3.64-3.67,10.36,10.36,0,0,1-1.35-5.29,10.33,10.33,0,0,1,1.35-5.33,9.63,9.63,0,0,1,3.64-3.61,11.32,11.32,0,0,1,10.57,0,9.66,9.66,0,0,1,3.65,3.61A10.41,10.41,0,0,1,115,39.41a10.54,10.54,0,0,1-1.32,5.31A9.6,9.6,0,0,1,110,48.37,10.57,10.57,0,0,1,104.67,49.69Zm0-2.41a7.6,7.6,0,0,0,3.87-1,7,7,0,0,0,2.67-2.77,9.19,9.19,0,0,0,0-8.26,7,7,0,0,0-2.67-2.75,8,8,0,0,0-7.67,0,7.18,7.18,0,0,0-2.69,2.75,9.11,9.11,0,0,0,0,8.26,7.33,7.33,0,0,0,2.67,2.77A7.41,7.41,0,0,0,104.67,47.28Z"/><path class="cls-1" d="M120.51,48.21V30.65a1.29,1.29,0,0,1,1.29-1.29h0a1.29,1.29,0,0,1,1.29,1.29v4.19l-.27-1a6.71,6.71,0,0,1,2.84-3.51,8.65,8.65,0,0,1,3.51-1.13,1.31,1.31,0,0,1,1.44,1.3v1.27a1.51,1.51,0,0,1-.3,0l-.31,0a6.49,6.49,0,0,0-5,1.94,7.8,7.8,0,0,0-1.8,5.51v9A1.29,1.29,0,0,1,122,49.5h-.15A1.29,1.29,0,0,1,120.51,48.21Z"/><path class="cls-1" d="M135.59,55.65v-25a1.29,1.29,0,0,1,1.29-1.29h0a1.29,1.29,0,0,1,1.29,1.29v4.81l-.26,3.88v.21l.37,3.9s0,.09,0,.13V55.65a1.29,1.29,0,0,1-1.3,1.29h-.14A1.29,1.29,0,0,1,135.59,55.65Zm10.4-6a9.29,9.29,0,0,1-4.72-1.21A8.7,8.7,0,0,1,137.91,45a11.51,11.51,0,0,1-1.24-5.58,11.74,11.74,0,0,1,1.22-5.58,8.5,8.5,0,0,1,3.34-3.48A9.58,9.58,0,0,1,146,29.17a10.29,10.29,0,0,1,5.16,1.28,9.3,9.3,0,0,1,3.59,3.61,10.73,10.73,0,0,1,1.3,5.35,10.68,10.68,0,0,1-1.3,5.37,9.43,9.43,0,0,1-3.59,3.61A10.2,10.2,0,0,1,146,49.69Zm-.19-2.41a7.5,7.5,0,0,0,3.83-1,7.17,7.17,0,0,0,2.69-2.77,9,9,0,0,0,0-8.23,7.28,7.28,0,0,0-6.52-3.76,7.55,7.55,0,0,0-3.86,1,7.18,7.18,0,0,0-2.68,2.76,8.28,8.28,0,0,0-1,4.11,8.31,8.31,0,0,0,1,4.12,7,7,0,0,0,2.68,2.77A7.64,7.64,0,0,0,145.8,47.28Z"/><path class="cls-1" d="M169.82,49.69a10.4,10.4,0,0,1-5.26-1.32,9.72,9.72,0,0,1-3.64-3.67,10.36,10.36,0,0,1-1.35-5.29,10.33,10.33,0,0,1,1.35-5.33,9.63,9.63,0,0,1,3.64-3.61,11.32,11.32,0,0,1,10.57,0,9.66,9.66,0,0,1,3.65,3.61,10.41,10.41,0,0,1,1.32,5.31,10.54,10.54,0,0,1-1.32,5.31,9.6,9.6,0,0,1-3.67,3.65A10.57,10.57,0,0,1,169.82,49.69Zm0-2.41a7.6,7.6,0,0,0,3.87-1,7,7,0,0,0,2.67-2.77,9.19,9.19,0,0,0,0-8.26,7,7,0,0,0-2.67-2.75,8,8,0,0,0-7.67,0,7.18,7.18,0,0,0-2.69,2.75,9.11,9.11,0,0,0,0,8.26A7.33,7.33,0,0,0,166,46.3,7.41,7.41,0,0,0,169.82,47.28Z"/><path class="cls-1" d="M206.11,44.87v3.34a1.28,1.28,0,0,1-1.28,1.28h-19a1.28,1.28,0,0,1-1.28-1.28V23.93a1.28,1.28,0,0,1,1.28-1.28h18.46a1.28,1.28,0,0,1,1.28,1.28v3.33a1.29,1.29,0,0,1-1.28,1.3h-11a1.29,1.29,0,0,0-1.29,1.29v1.89a1.3,1.3,0,0,0,1.29,1.3h9.35a1.3,1.3,0,0,1,1.3,1.29v3.06a1.29,1.29,0,0,1-1.29,1.29h-9.36A1.29,1.29,0,0,0,192.07,40V42.3a1.28,1.28,0,0,0,1.28,1.29h11.48A1.28,1.28,0,0,1,206.11,44.87Z"/><path class="cls-1" d="M216.47,49.85a9.65,9.65,0,0,1-4.2-.85,6.19,6.19,0,0,1-2.65-2.3,6,6,0,0,1-.9-3.22,5.77,5.77,0,0,1,1-3.34,6,6,0,0,1,3-2.17,15.51,15.51,0,0,1,5.24-.75h3.62a1.29,1.29,0,0,1,1.29,1.29v1.26a1.29,1.29,0,0,1-1.29,1.29H219a4.23,4.23,0,0,0-2.48.54,1.82,1.82,0,0,0-.71,1.53,1.89,1.89,0,0,0,.73,1.52,3.11,3.11,0,0,0,2,.59,4.21,4.21,0,0,0,2.2-.59,3.28,3.28,0,0,0,1.4-1.83l.84,2.27a1.24,1.24,0,0,1,0,.85,5.25,5.25,0,0,1-2.11,2.81A7.92,7.92,0,0,1,216.47,49.85Zm7.43-.35a1.29,1.29,0,0,1-1.29-1.29V45.63l-.5-1V37.53a3.41,3.41,0,0,0-1.05-2.67,5,5,0,0,0-3.36-.94,10,10,0,0,0-3,.5,10.61,10.61,0,0,0-1.48.59,1.31,1.31,0,0,1-1.76-.57l-1.27-2.57a1.3,1.3,0,0,1,.57-1.73A16.18,16.18,0,0,1,213.84,29a19.53,19.53,0,0,1,4.93-.65q5.07,0,7.85,2.34c1.86,1.56,2.78,4,2.78,7.29V48.21a1.29,1.29,0,0,1-1.29,1.29Z"/><path class="cls-1" d="M231.82,33.63V30.76a1.29,1.29,0,0,1,1.29-1.29h12.5a1.29,1.29,0,0,1,1.29,1.29v2.87a1.29,1.29,0,0,1-1.29,1.29h-12.5A1.29,1.29,0,0,1,231.82,33.63Zm11.47,16.22a9,9,0,0,1-6.21-2q-2.24-2-2.23-6V25.31A1.29,1.29,0,0,1,236.14,24h4.71a1.29,1.29,0,0,1,1.29,1.29V41.79a2.48,2.48,0,0,0,.6,1.8,2.09,2.09,0,0,0,1.59.62,4.17,4.17,0,0,0,1.19-.17,1.3,1.3,0,0,1,1.52.85l1,2.67a1.26,1.26,0,0,1-.67,1.61,8.18,8.18,0,0,1-1.27.39A13.16,13.16,0,0,1,243.29,49.85Z"/><path class="cls-1" d="M258.72,49.85a21.57,21.57,0,0,1-5.16-.62,17.07,17.07,0,0,1-2.93-1,1.28,1.28,0,0,1-.64-1.69L251.11,44a1.28,1.28,0,0,1,1.71-.66,15.77,15.77,0,0,0,2.29.82,14.35,14.35,0,0,0,3.84.54,5.61,5.61,0,0,0,2.55-.41,1.22,1.22,0,0,0,.71-1.09,1,1,0,0,0-.65-.88,5.84,5.84,0,0,0-1.77-.44l-2.4-.31a20.5,20.5,0,0,1-2.63-.54,9.79,9.79,0,0,1-2.43-1,4.91,4.91,0,0,1-1.75-1.81,5.91,5.91,0,0,1-.65-2.91,5.74,5.74,0,0,1,1.17-3.55,7.92,7.92,0,0,1,3.42-2.48,14.68,14.68,0,0,1,5.54-.92,21.79,21.79,0,0,1,4.43.46,14.39,14.39,0,0,1,2.59.77,1.3,1.3,0,0,1,.69,1.72l-1.14,2.58a1.27,1.27,0,0,1-1.71.65,9.25,9.25,0,0,0-1.91-.62,15,15,0,0,0-2.87-.3,6.17,6.17,0,0,0-2.63.4c-.53.27-.79.61-.79,1a1,1,0,0,0,.69.94,7.14,7.14,0,0,0,1.77.5c.71.11,1.51.23,2.39.34a21.45,21.45,0,0,1,2.63.52,8.47,8.47,0,0,1,2.38,1,5.2,5.2,0,0,1,1.75,1.8,5.75,5.75,0,0,1,.67,2.93,5.53,5.53,0,0,1-1.15,3.42,7.82,7.82,0,0,1-3.45,2.45A15.24,15.24,0,0,1,258.72,49.85Z"/></svg>