<?xml version="1.0" encoding="utf-8"?>
<!-- Generator: Adobe Illustrator 26.0.1, SVG Export Plug-In . SVG Version: 6.00 Build 0)  -->
<svg version="1.1" id="Layer_1" xmlns="http://www.w3.org/2000/svg" xmlns:xlink="http://www.w3.org/1999/xlink" x="0px" y="0px"
	 viewBox="0 0 384 207.4" style="enable-background:new 0 0 384 207.4;" xml:space="preserve">
<style type="text/css">
	.st0{fill:#EDEDED;stroke:#000000;stroke-miterlimit:10;}
	.st1{fill:#EE445B;}
	.st2{fill-rule:evenodd;clip-rule:evenodd;fill:#EE445B;}
</style>
<rect class="st0" width="384" height="207.4"/>
<path class="st1" d="M107.3,119.9c-0.7-0.3-1.5-0.4-2.2-0.5c-1.2,0-2.4,0.4-3.3,1.1c-3.2,2.4-7,3.7-11,3.7c-8.9,0-16-5.2-17.6-13.7
	L62,111.1c1.8,14.1,13.5,24,28,24.4c6.7,0.2,13.2-1.9,18.5-5.9c2.5-1.9,3-5.4,1.1-7.9C109,120.9,108.2,120.3,107.3,119.9z
	 M89.4,88.2c4.4-0.3,8.8,1,12.3,3.7c2.5,1.8,6,1.3,7.8-1.1c0.7-0.9,1.1-2.1,1.1-3.3c0-1.8-0.8-3.4-2.2-4.5c-5.1-3.9-11.3-6-17.7-6
	c-14.9,0-26.9,9.9-28.8,24.2l11.2,0.6C74.7,93.7,81.2,88.8,89.4,88.2z"/>
<path class="st2" d="M78.4,111.6c1.2,2.8,2.8,4.3,6.4,4h14.7c1.3,0,1.5-3.8,0-4l-13-0.1c-1.4,0-1.5-3.4,0-3.4l11.8,0.2
	c1.4,0,1.5-3.7,0-3.7c-2.2,0-9.6-0.2-11.8-0.2c-1.4,0.2-1.5-3,0-2.9l13.2,0.2c1-0.1,1.4-1.9,0.9-3.2c-0.5-1.3-1.6-1.1-2.5-1.1
	l-14.3-0.4c-2.7-0.1-5.1,1.8-5.6,4.4c-0.2,0.7-0.3,1.3-0.3,2l-21.6-1.2c-1.3-0.1-2.3,1.6-2.3,3.6v0.4c0,2.2,1.2,4.1,2.6,4l21.4-1
	C78,109.9,78.2,110.7,78.4,111.6L78.4,111.6z"/>
<path class="st1" d="M136,120.1c-1.9,0-3.8-0.3-5.6-1c-1.7-0.6-3.2-1.6-4.4-2.9c-1.3-1.2-2.3-2.7-3-4.4c-1.4-3.5-1.4-7.4,0-10.9
	c0.7-1.6,1.7-3.1,3-4.3c1.3-1.2,2.8-2.2,4.5-2.9c1.8-0.7,3.7-1,5.6-1c1.9,0,3.7,0.3,5.5,1c1.2,0.5,2.3,1.1,3.3,1.9
	c0.6,0.5,0.6,1.3,0.1,1.8c0,0,0,0-0.1,0.1l0,0c-0.5,0.5-1.2,0.5-1.7,0.1c-0.8-0.7-1.8-1.3-2.8-1.6c-2.8-1-6-1-8.8,0.1
	c-1.4,0.5-2.6,1.3-3.7,2.3c-3.2,3.3-4.1,8.2-2.4,12.4c0.6,1.3,1.4,2.5,2.4,3.5c1,1,2.3,1.8,3.6,2.3c2.8,1.1,5.9,1.1,8.8,0.1
	c1-0.4,2-1,2.8-1.7c0.5-0.4,1.3-0.4,1.7,0.1l0,0c0.5,0.5,0.5,1.3,0,1.8c0,0-0.1,0-0.1,0.1c-1,0.9-2.1,1.5-3.3,2
	C139.7,119.8,137.9,120.1,136,120.1z"/>
<path class="st1" d="M158.7,120.1c-1.8,0-3.7-0.4-5.3-1.3c-1.5-0.9-2.8-2.1-3.6-3.7c-0.9-1.6-1.4-3.4-1.4-5.3c0-1.9,0.4-3.7,1.4-5.3
	c0.9-1.5,2.1-2.8,3.6-3.6c3.3-1.7,7.3-1.7,10.6,0c1.5,0.9,2.8,2.1,3.7,3.6c0.9,1.6,1.4,3.5,1.4,5.3c0,1.9-0.4,3.7-1.3,5.3
	c-0.9,1.5-2.1,2.8-3.7,3.7C162.4,119.7,160.5,120.1,158.7,120.1z M158.7,117.7c1.4,0,2.7-0.3,3.9-1c1.1-0.7,2.1-1.6,2.7-2.8
	c1.3-2.6,1.3-5.7,0-8.3c-0.6-1.1-1.5-2.1-2.7-2.8c-2.4-1.3-5.3-1.3-7.7,0c-1.1,0.7-2.1,1.6-2.7,2.8c-1.3,2.6-1.3,5.7,0,8.3
	c0.6,1.1,1.5,2.1,2.7,2.8C156,117.4,157.3,117.7,158.7,117.7z"/>
<path class="st1" d="M174.5,118.6v-17.6c0-0.7,0.6-1.3,1.3-1.3l0,0c0.7,0,1.3,0.6,1.3,1.3l0,0v4.2l-0.3-1c0.5-1.5,1.5-2.7,2.8-3.5
	c1.1-0.6,2.3-1,3.5-1.1c0.7-0.1,1.4,0.5,1.4,1.2c0,0,0,0.1,0,0.1v1.3c-0.1,0-0.2,0-0.3,0H184c-1.9-0.1-3.7,0.6-5,1.9
	c-1.3,1.5-1.9,3.5-1.8,5.5v9c0,0.7-0.5,1.2-1.2,1.3h-0.1C175.1,119.9,174.5,119.4,174.5,118.6C174.5,118.6,174.5,118.6,174.5,118.6z
	"/>
<path class="st1" d="M189.6,126.1v-25c0-0.7,0.6-1.3,1.3-1.3l0,0c0.7,0,1.3,0.6,1.3,1.3v4.8l-0.3,3.9v0.2l0.4,3.9c0,0,0,0.1,0,0.1
	v12.1c0,0.7-0.6,1.3-1.3,1.3c0,0,0,0,0,0h-0.1C190.1,127.3,189.6,126.7,189.6,126.1z M200,120.1c-1.7,0-3.3-0.4-4.7-1.2
	c-1.4-0.8-2.6-2-3.4-3.4c-0.9-1.7-1.3-3.6-1.2-5.6c-0.1-1.9,0.4-3.8,1.2-5.6c0.8-1.5,1.9-2.7,3.3-3.5c1.5-0.8,3.1-1.2,4.8-1.2
	c1.8,0,3.6,0.4,5.2,1.3c1.5,0.8,2.8,2.1,3.6,3.6c0.9,1.6,1.3,3.5,1.3,5.3c0,1.9-0.4,3.7-1.3,5.4c-0.8,1.5-2.1,2.8-3.6,3.6
	C203.6,119.7,201.8,120.1,200,120.1L200,120.1z M199.8,117.6c1.3,0,2.7-0.3,3.8-1c1.1-0.7,2.1-1.6,2.7-2.8c1.3-2.6,1.3-5.6,0-8.2
	c-1.3-2.4-3.8-3.8-6.5-3.8c-1.4,0-2.7,0.3-3.9,1c-1.1,0.7-2.1,1.6-2.7,2.8c-0.7,1.3-1,2.7-1,4.1c0,1.4,0.3,2.9,1,4.1
	c0.6,1.2,1.5,2.1,2.7,2.8C197.1,117.3,198.4,117.7,199.8,117.6L199.8,117.6z"/>
<path class="st1" d="M223.8,120.1c-1.8,0-3.7-0.4-5.3-1.3c-1.5-0.9-2.8-2.1-3.6-3.7c-0.9-1.6-1.4-3.4-1.4-5.3c0-1.9,0.4-3.7,1.4-5.3
	c0.9-1.5,2.1-2.8,3.6-3.6c3.3-1.7,7.3-1.7,10.6,0c1.5,0.9,2.8,2.1,3.6,3.6c0.9,1.6,1.4,3.5,1.3,5.3c0,1.9-0.4,3.7-1.3,5.3
	c-0.9,1.5-2.1,2.8-3.7,3.7C227.5,119.7,225.7,120.1,223.8,120.1z M223.8,117.7c1.4,0,2.7-0.3,3.9-1c1.1-0.7,2.1-1.6,2.7-2.8
	c1.3-2.6,1.3-5.7,0-8.3c-0.6-1.1-1.5-2.1-2.7-2.8c-2.4-1.3-5.3-1.3-7.7,0c-1.1,0.7-2.1,1.6-2.7,2.8c-1.3,2.6-1.3,5.7,0,8.3
	c0.6,1.2,1.5,2.1,2.7,2.8C221.2,117.4,222.5,117.7,223.8,117.7z"/>
<path class="st1" d="M260.1,115.3v3.3c0,0.7-0.6,1.3-1.3,1.3h-19c-0.7,0-1.3-0.6-1.3-1.3V94.3c0-0.7,0.6-1.3,1.3-1.3h18.5
	c0.7,0,1.3,0.6,1.3,1.3v3.3c0,0.7-0.6,1.3-1.3,1.3c0,0,0,0,0,0h-11c-0.7,0-1.3,0.6-1.3,1.3v1.9c0,0.7,0.6,1.3,1.3,1.3h9.4
	c0.7,0,1.3,0.6,1.3,1.3v3.1c0,0.7-0.6,1.3-1.3,1.3h-9.4c-0.7,0-1.2,0.6-1.2,1.3v2.3c0,0.7,0.6,1.3,1.3,1.3c0,0,0,0,0,0h11.5
	C259.5,114,260.1,114.6,260.1,115.3z"/>
<path class="st1" d="M270.5,120.2c-1.4,0-2.9-0.3-4.2-0.8c-1.1-0.5-2-1.3-2.6-2.3c-0.6-1-0.9-2.1-0.9-3.2c0-1.2,0.3-2.4,1-3.3
	c0.7-1,1.8-1.8,3-2.2c1.7-0.5,3.5-0.8,5.2-0.8h3.6c0.7,0,1.3,0.6,1.3,1.3v1.3c0,0.7-0.6,1.3-1.3,1.3H273c-0.9-0.1-1.7,0.1-2.5,0.5
	c-0.5,0.4-0.7,0.9-0.7,1.5c0,0.6,0.3,1.2,0.7,1.5c0.6,0.4,1.3,0.6,2,0.6c0.8,0,1.5-0.2,2.2-0.6c0.7-0.4,1.2-1.1,1.4-1.8l0.8,2.3
	c0.1,0.3,0.1,0.6,0,0.8c-0.4,1.2-1.1,2.1-2.1,2.8C273.5,119.9,272,120.3,270.5,120.2z M277.9,119.9c-0.7,0-1.3-0.6-1.3-1.3V116
	l-0.5-1v-7.1c0.1-1-0.3-2-1.1-2.7c-1-0.7-2.2-1-3.4-0.9c-1,0-2,0.2-3,0.5c-0.5,0.2-1,0.4-1.5,0.6c-0.6,0.3-1.4,0.1-1.8-0.6l-1.3-2.6
	c-0.3-0.6-0.1-1.4,0.6-1.7c1-0.5,2-0.9,3.1-1.1c1.6-0.4,3.3-0.6,4.9-0.7c3.4,0,6,0.8,7.9,2.3c1.9,1.6,2.8,4,2.8,7.3v10.2
	c0,0.7-0.6,1.3-1.3,1.3H277.9z"/>
<path class="st1" d="M285.8,104v-2.9c0-0.7,0.6-1.3,1.3-1.3h12.5c0.7,0,1.3,0.6,1.3,1.3v2.9c0,0.7-0.6,1.3-1.3,1.3h-12.5
	C286.4,105.3,285.8,104.7,285.8,104z M297.3,120.2c-2.2,0.1-4.5-0.6-6.2-2c-1.5-1.3-2.2-3.3-2.2-6V95.7c0-0.7,0.6-1.3,1.3-1.3
	c0,0,0,0,0,0h4.7c0.7,0,1.3,0.6,1.3,1.3v16.5c0,0.7,0.2,1.3,0.6,1.8c0.4,0.4,1,0.6,1.6,0.6c0.4,0,0.8-0.1,1.2-0.2
	c0.6-0.1,1.3,0.2,1.5,0.8l1,2.7c0.2,0.6-0.1,1.3-0.7,1.6c-0.4,0.2-0.8,0.3-1.3,0.4C299.2,120.2,298.2,120.3,297.3,120.2L297.3,120.2
	z"/>
<path class="st1" d="M312.7,120.2c-1.7,0-3.5-0.2-5.2-0.6c-1-0.2-2-0.6-2.9-1c-0.6-0.3-0.9-1-0.6-1.7l1.1-2.5c0.3-0.6,1-1,1.7-0.7
	c0,0,0,0,0,0c0.7,0.3,1.5,0.6,2.3,0.8c1.2,0.4,2.5,0.5,3.8,0.5c0.9,0.1,1.7-0.1,2.5-0.4c0.4-0.2,0.7-0.6,0.7-1.1
	c0-0.4-0.3-0.7-0.6-0.9c-0.6-0.2-1.2-0.4-1.8-0.4l-2.4-0.3c-0.9-0.1-1.8-0.3-2.6-0.5c-0.9-0.2-1.7-0.6-2.4-1
	c-0.7-0.4-1.3-1.1-1.8-1.8c-0.5-0.9-0.7-1.9-0.6-2.9c0-1.3,0.4-2.5,1.2-3.5c0.9-1.1,2.1-2,3.4-2.5c1.8-0.7,3.7-1,5.5-0.9
	c1.5,0,3,0.2,4.4,0.5c0.9,0.2,1.8,0.4,2.6,0.8c0.7,0.3,1,1,0.7,1.7c0,0,0,0,0,0l-1.1,2.6c-0.3,0.6-1,0.9-1.7,0.7c0,0,0,0,0,0
	c-0.6-0.3-1.3-0.5-1.9-0.6c-0.9-0.2-1.9-0.3-2.9-0.3c-0.9-0.1-1.8,0.1-2.6,0.4c-0.5,0.3-0.8,0.6-0.8,1c0,0.4,0.3,0.8,0.7,0.9
	c0.6,0.2,1.2,0.4,1.8,0.5c0.7,0.1,1.5,0.2,2.4,0.3c0.9,0.1,1.8,0.3,2.6,0.5c0.8,0.2,1.6,0.5,2.4,1c0.7,0.4,1.3,1.1,1.8,1.8
	c0.5,0.9,0.7,1.9,0.7,2.9c0,1.2-0.4,2.4-1.1,3.4c-0.9,1.1-2.1,2-3.5,2.5C316.6,120,314.7,120.3,312.7,120.2z"/>
</svg>
