<?xml version="1.0" encoding="utf-8"?>
<!-- Generator: Adobe Illustrator 26.0.1, SVG Export Plug-In . SVG Version: 6.00 Build 0)  -->
<svg version="1.1" id="Layer_1" xmlns="http://www.w3.org/2000/svg" xmlns:xlink="http://www.w3.org/1999/xlink" x="0px" y="0px"
	 viewBox="0 0 122.9 122.9" style="enable-background:new 0 0 122.9 122.9;" xml:space="preserve">
<style type="text/css">
	.st0{fill-rule:evenodd;clip-rule:evenodd;fill:#F0F8FF;}
</style>
<g>
	<path class="st0" d="M61.4,0c33.9,0,61.4,27.5,61.4,61.4c0,33.9-27.5,61.4-61.4,61.4C27.5,122.9,0,95.4,0,61.4
		C0,27.5,27.5,0,61.4,0L61.4,0z M81.7,36.2c1.4-1.4,3.6-1.4,4.9,0c1.4,1.4,1.4,3.6,0,4.9L66.4,61.4l20.3,20.3c1.4,1.4,1.4,3.6,0,4.9
		c-1.4,1.4-3.6,1.4-4.9,0L61.4,66.4L41.2,86.7c-1.4,1.4-3.6,1.4-4.9,0c-1.4-1.4-1.4-3.6,0-4.9l20.3-20.3L36.2,41.2
		c-1.4-1.4-1.4-3.6,0-4.9s3.6-1.4,4.9,0l20.3,20.3L81.7,36.2L81.7,36.2z"/>
</g>
</svg>
