<?xml version="1.0" encoding="utf-8"?>
<!-- Generator: Adobe Illustrator 26.0.1, SVG Export Plug-In . SVG Version: 6.00 Build 0)  -->
<svg version="1.1" id="Layer_1" xmlns="http://www.w3.org/2000/svg" xmlns:xlink="http://www.w3.org/1999/xlink" x="0px" y="0px"
	 viewBox="0 0 800 800" style="enable-background:new 0 0 800 800;" xml:space="preserve">
<style type="text/css">
	.st0{fill:#FCFCFC;}
</style>
<rect y="0.1" width="799.7" height="799.7"/>
<path class="st0" d="M565,391c39,2.6,73.9-24.1,81.6-62.4c-9.4-14.6-25.5-23.3-42.8-23.3C558.7,304.3,534.5,357.9,565,391L565,391z
	 M383,175.9l106.3-61.5l-33.9-19.1l-146.5,84.9l11.7,6.5l22.2,12.5L383,175.9L383,175.9z M502.9,108.7c1.8,0.5,3.2,2,3.7,3.7
	l49.3,150.6c0.9,2.6-0.1,5.4-2.5,6.8c-39,22.9-57.8,69.2-45.9,112.9c13,47.4,58.2,78.4,107.1,73.4c2.7-0.2,5.3,1.4,6.1,4l50.8,154.7
	c0.8,2.6-0.2,5.4-2.5,6.8l-155.8,94.6c-0.7,0.4-1.7,0.7-2.6,0.7c-1.3,0.3-2.8,0-4-0.8l-54.8-35.6c-1-0.6-1.7-1.5-2.2-2.6l-107-255.7
	l-163,96.7c-0.3,0.2-0.7,0.4-1,0.6c-1.7,0.7-3.6,0.5-5.2-0.4l-36.9-21.7c-2.7-1.4-3.7-4.9-2.3-7.6l157.7-312.3
	c0.5-1.1,1.5-2.1,2.7-2.6l157.8-91.4c1.7-1,3.9-1.1,5.8-0.1L502.9,108.7z M337.9,209.8l-38.3-21.6L147,490.1l27.7,16.3l131.5-178.7
	c1.2-1.8,3.3-2.7,5.4-2.4c2.1,0.2,3.8,1.5,4.7,3.5l143.3,342.9l38.3,24.8L338,209.8L337.9,209.8z M603.7,419.1
	c-44.7,0-75.1-45.4-58-86.8C562.8,291,616.4,280.4,648,312c11.8,11.8,18.4,27.7,18.4,44.3C666.5,391,638.4,419.1,603.7,419.1
	L603.7,419.1z"/>
</svg>
