<?xml version="1.0" encoding="utf-8"?>
<!-- Generator: Adobe Illustrator 26.0.1, SVG Export Plug-In . SVG Version: 6.00 Build 0)  -->
<svg version="1.1" id="Layer_1" xmlns="http://www.w3.org/2000/svg" xmlns:xlink="http://www.w3.org/1999/xlink" x="0px" y="0px"
	 viewBox="0 0 122.9 101.9" style="enable-background:new 0 0 122.9 101.9;" xml:space="preserve">
<style type="text/css">
	.st0{fill-rule:evenodd;clip-rule:evenodd;fill:#F0F8FF;}
</style>
<g>
	<g>
		<path class="st0" d="M3.3,0h116.2c1.8,0,3.3,1.5,3.3,3.3v77c0,1.8-1.5,3.3-3.3,3.3H3.3c-1.8,0-3.3-1.5-3.3-3.3v-77
			C0,1.5,1.5,0,3.3,0L3.3,0L3.3,0z M12.6,11.7h9.8v2.6h-9.8V11.7L12.6,11.7z M27.1,38.8H12.6v-2.6h14.5V38.8L27.1,38.8z M46.8,38.8
			H30v-2.6h16.8V38.8L46.8,38.8z M75.7,38.8h-26v-2.6h26L75.7,38.8L75.7,38.8z M37.2,28.1h51.2v2.5H37.2V28.1L37.2,28.1z M25.2,28
			h9.3v2.6h-9.3V28L25.2,28z M12.6,28h9.8v2.6h-9.8V28L12.6,28z M34.8,22.4H12.6v-2.5h22.2L34.8,22.4L34.8,22.4z M46.8,22.4h-9.3
			v-2.6h9.3L46.8,22.4L46.8,22.4z M75.7,22.4h-26v-2.6h26L75.7,22.4L75.7,22.4z M37.2,11.7h22.2v2.5H37.2V11.7L37.2,11.7z
			 M25.2,11.7h9.3v2.6h-9.3V11.7L25.2,11.7z M91.2,62.1L82.1,57v-2.9l9.1-5.1v3.4l-6.3,3.2l6.3,3.3V62.1L91.2,62.1z M92.9,64.3
			l3.3-17.9h1.9l-3.3,17.9H92.9L92.9,64.3z M99.5,62.1v-3.3l6.3-3.2l-6.3-3.2V49l9.1,5.1V57L99.5,62.1L99.5,62.1z M46.3,88.3h30.3
			c0.1,5.2,2.2,9.9,8.1,13.6H38.2C42.9,98.5,46.3,94.4,46.3,88.3L46.3,88.3L46.3,88.3z M61.4,72.4c2.4,0,4.3,1.9,4.3,4.3
			S63.8,81,61.4,81c-2.4,0-4.3-1.9-4.3-4.3C57.2,74.3,59.1,72.4,61.4,72.4L61.4,72.4z M10.1,6.3h102.8c1.6,0,2.9,1.3,2.9,2.9v57.5
			c0,1.6-1.3,2.9-2.9,2.9H10.1c-1.6,0-2.9-1.3-2.9-2.9V9.2C7.1,7.6,8.4,6.3,10.1,6.3L10.1,6.3L10.1,6.3z"/>
	</g>
</g>
</svg>
