<?xml version="1.0" encoding="utf-8"?><svg version="1.1" id="Layer_1" xmlns="http://www.w3.org/2000/svg" xmlns:xlink="http://www.w3.org/1999/xlink" x="0px" y="0px" viewBox="0 0 122.88 122.84" style="enable-background:new 0 0 122.88 122.84" xml:space="preserve"><style type="text/css">.st0{fill-rule:evenodd;clip-rule:evenodd;fill:#49021F;} .st1{fill-rule:evenodd;clip-rule:evenodd;fill:#FF3366;}</style><g><polygon class="st0" points="0,0 122.83,0 122.83,122.83 0,122.83 0,0"/><path class="st1" d="M44.06,35.39V87.9c0,0.56-0.26,0.82-0.72,0.82H33.31c-0.46,0-0.67-0.26-0.67-0.82l0-52.51 c0-0.46,0.26-0.67,0.72-0.67h9.98c0.31-0.05,0.61,0.15,0.67,0.51C44.06,35.29,44.06,35.34,44.06,35.39L44.06,35.39z M73.54,89.54 c-3.79,0.05-7.57-0.72-11-2.3c-3.22-1.48-5.89-3.94-7.73-6.96C52.92,77.16,52,73.27,52,68.61c-0.05-3.79,0.92-7.52,2.81-10.8 c1.94-3.33,4.76-6.09,8.14-7.93c3.58-2,7.88-2.97,12.95-2.97c0.26,0,0.61,0,1.07,0.05c0.46,0.05,0.97,0.05,1.59,0.1l0-16.17 c0-0.36,0.15-0.56,0.51-0.56l10.39,0c0.26-0.05,0.46,0.15,0.51,0.36c0,0.05,0,0.1,0,0.1v48.72c0,0.92,0.05,1.94,0.1,3.07 c0.1,1.07,0.15,2.1,0.2,2.97c0,0.36-0.15,0.67-0.51,0.82c-2.66,1.13-5.48,1.94-8.34,2.46C78.87,89.29,76.2,89.54,73.54,89.54 L73.54,89.54z M78.56,79.31V56.79c-0.46-0.1-0.92-0.2-1.38-0.26c-0.56-0.05-1.13-0.1-1.69-0.1c-2,0-3.99,0.41-5.78,1.33 c-1.74,0.87-3.22,2.15-4.35,3.79c-1.13,1.64-1.69,3.84-1.69,6.5c-0.05,1.79,0.26,3.58,0.87,5.27c0.51,1.38,1.28,2.61,2.3,3.63 c0.97,0.92,2.15,1.64,3.48,2.05c1.38,0.46,2.81,0.67,4.25,0.67c0.77,0,1.48-0.05,2.15-0.1C77.38,79.61,77.99,79.51,78.56,79.31 L78.56,79.31z"/><path class="st1" d="M5.16,5.17h112.6v112.17H5.16V5.17L5.16,5.17z M0.05,122.84h122.83V0.05H0.05V122.84L0.05,122.84z"/></g></svg>