<?xml version="1.0" encoding="utf-8"?>
<!-- Generator: Adobe Illustrator 26.0.1, SVG Export Plug-In . SVG Version: 6.00 Build 0)  -->
<svg version="1.1" id="Layer_1" xmlns="http://www.w3.org/2000/svg" xmlns:xlink="http://www.w3.org/1999/xlink" x="0px" y="0px"
	 viewBox="0 0 398.1 268.4" style="enable-background:new 0 0 398.1 268.4;" xml:space="preserve">
<style type="text/css">
	.st0{fill:#EDEDED;stroke:#000000;stroke-miterlimit:10;}
	.st1{fill:#17192C;}
	.st2{opacity:0.8;fill:#17192C;enable-background:new    ;}
</style>
<rect class="st0" width="398.1" height="268.4"/>
<polygon class="st1" points="217.5,111.7 217.5,165.7 211.7,172.6 201.3,185 179.1,166.5 166.7,156.2 141.3,134.9 141.3,214.2 
	131.9,206.4 125.1,200.7 125.1,133.2 130.9,126.3 137.8,118.1 141.3,113.9 177,143.8 189.4,154.1 201.3,164 201.3,131 208,123 "/>
<polygon class="st1" points="273,131 214,201.8 203.6,214.2 191.2,203.9 180.9,195.4 180.9,174.3 201.6,191.4 250.3,133.1 197,88.7 
	197,154.6 180.9,141.4 180.9,54.2 191.2,62.8 191.2,62.8 260.6,120.7 261.6,121.5 "/>
<polygon class="st1" points="141.3,107.1 125.1,126.4 125.1,107.1 "/>
<polygon class="st2" points="227.8,164.9 227.8,165 227.8,164.9 "/>
</svg>
