<?xml version="1.0" encoding="utf-8"?>
<!-- Generator: Adobe Illustrator 26.0.1, SVG Export Plug-In . SVG Version: 6.00 Build 0)  -->
<svg version="1.1"
	 id="Layer_1" shape-rendering="geometricPrecision" text-rendering="geometricPrecision" image-rendering="optimizeQuality"
	 xmlns="http://www.w3.org/2000/svg" xmlns:xlink="http://www.w3.org/1999/xlink" x="0px" y="0px" viewBox="0 0 64 64"
	 style="enable-background:new 0 0 64 64;" xml:space="preserve">
<style type="text/css">
	.st0{fill-rule:evenodd;clip-rule:evenodd;fill:#F0F8FF;}
</style>
<path class="st0" d="M18.5,0.3h27.1C55.7,0.3,64,8.5,64,18.5v27c0,10-8.3,18.2-18.5,18.2H18.5C8.3,63.7,0,55.5,0,45.5v-27
	C0,8.5,8.3,0.3,18.5,0.3z M31.8,14.9c9.9,0,17.9,8,17.9,17.9c0,9.9-8,17.9-17.9,17.9c-9.9,0-17.9-8-17.9-17.9
	C13.9,22.9,22,14.9,31.8,14.9z M31.8,20.9c6.5,0,11.8,5.3,11.8,11.8s-5.3,11.8-11.8,11.8c-6.5,0-11.8-5.3-11.8-11.8
	C20,26.2,25.3,20.9,31.8,20.9z M49.1,12.4c1.6,0,2.9,1.3,2.9,2.9c0,1.6-1.3,2.9-2.9,2.9c-1.6,0-2.9-1.3-2.9-2.9
	C46.2,13.7,47.5,12.4,49.1,12.4z M20.7,5.5h22.6c8.5,0,15.5,6.9,15.5,15.4v22.8c0,8.5-7,15.4-15.5,15.4H20.7
	C12.2,59,5.2,52,5.2,43.6V20.8C5.2,12.4,12.2,5.5,20.7,5.5z"/>
</svg>
