<?xml version="1.0" encoding="utf-8"?>
<!-- Generator: Adobe Illustrator 26.0.1, SVG Export Plug-In . SVG Version: 6.00 Build 0)  -->
<svg version="1.1"
	 id="Layer_1" shape-rendering="geometricPrecision" text-rendering="geometricPrecision" image-rendering="optimizeQuality"
	 xmlns="http://www.w3.org/2000/svg" xmlns:xlink="http://www.w3.org/1999/xlink" x="0px" y="0px" viewBox="0 0 64 64"
	 style="enable-background:new 0 0 64 64;" xml:space="preserve">
<style type="text/css">
	.st0{fill-rule:evenodd;clip-rule:evenodd;fill:#F0F8FF;}
</style>
<path class="st0" d="M22.9,20.6h12.6v6.5h0.2c1.8-3.2,6.1-6.5,12.5-6.5c13.4,0,15.8,8.3,15.8,19.1v22H50.8V42.2
	c0-4.7-0.1-10.6-6.9-10.6c-6.9,0-7.9,5.1-7.9,10.3v19.9H22.9L22.9,20.6L22.9,20.6z M13.7,9.1c0,3.8-3.1,6.9-6.9,6.9S0,12.9,0,9.1
	s3.1-6.9,6.9-6.9S13.7,5.4,13.7,9.1z M0,20.6h13.7v41.1H0C0,61.7,0,20.6,0,20.6z"/>
</svg>
