<?xml version="1.0" encoding="utf-8"?>
<!-- Generator: Adobe Illustrator 26.0.1, SVG Export Plug-In . SVG Version: 6.00 Build 0)  -->
<svg version="1.1" id="Layer_1" xmlns="http://www.w3.org/2000/svg" xmlns:xlink="http://www.w3.org/1999/xlink" x="0px" y="0px"
	 viewBox="0 0 115.8 122.9" style="enable-background:new 0 0 115.8 122.9;" xml:space="preserve">
<style type="text/css">
	.st0{fill-rule:evenodd;clip-rule:evenodd;fill:#F0F8FF;}
</style>
<g>
	<g>
		<path class="st0" d="M47.7,18.3L54.2,49l30.7,6.7L57.6,71.4l3.1,31.3L37.4,81.6L8.6,94.2l12.9-28.7L0.6,42l31.2,3.4L47.7,18.3
			L47.7,18.3L47.7,18.3z M65.2,95.3l26.7,27.1c0.6,0.7,1.7,0.7,2.3,0l10.4-10.3c0.7-0.6,0.7-1.7,0-2.3l-36.4-37
			c-0.6-0.7-2.3-0.9-2.3,0L65.2,95.3L65.2,95.3L65.2,95.3z M81,105.3l12.2,12.4c0.4,0.4,1,0.4,1.4,0l6-6c0.4-0.4,0.4-1,0-1.4
			L88.1,97.7L81,105.3L81,105.3z M16.1,33.1h-0.5c0-4.2-1.6-7.8-4.7-11C7.8,19,4.2,17.5,0,17.5v-0.5c4.2,0,7.8-1.6,10.9-4.7
			c3.1-3.1,4.7-6.8,4.7-10.9h0.5c0,4.2,1.6,7.8,4.7,10.9s6.8,4.7,10.9,4.7v0.5c-4.2,0-7.8,1.6-10.9,4.7
			C17.7,25.2,16.1,28.9,16.1,33.1L16.1,33.1L16.1,33.1z M91.7,48.9h-0.8c0-6.4-2.4-12-7.2-16.9s-10.4-7.2-16.8-7.2v-0.8
			c6.4,0,12.1-2.4,16.8-7.2C88.6,12,90.9,6.4,90.9,0h0.8c0,6.4,2.4,12.1,7.2,16.9s10.4,7.2,16.8,7.2v0.8c-6.4,0-12,2.4-16.8,7.2
			C94.1,36.9,91.7,42.5,91.7,48.9L91.7,48.9L91.7,48.9z"/>
	</g>
</g>
</svg>
