<svg id="Layer_1" data-name="Layer 1" xmlns="http://www.w3.org/2000/svg" viewBox="0 0 353.59 223.18"><defs><style>.cls-1{fill:#ededed;}.cls-2{fill:#282828;}.cls-3{fill:#231f20;}</style></defs><rect class="cls-1" width="353.59" height="226.51"/><rect class="cls-1" width="353.59" height="226.51"/><rect class="cls-1" width="353.59" height="226.51"/><path class="cls-2" d="M209.45,79.83v0a2.85,2.85,0,0,0-1.27-1.61L169.59,55a2.8,2.8,0,0,0-2.9,0L130,76.41a2.77,2.77,0,0,0-.6.47,3.17,3.17,0,0,0-1.14,2.46.47.47,0,0,0,0,.24.33.33,0,0,0,0,.14V92.78a3.86,3.86,0,0,0,1.43,3h0a3.68,3.68,0,0,0,3.51.59,4,4,0,0,0,2.55-3.82V89a2.33,2.33,0,0,1,3.51-2l25.91,15.32a4.34,4.34,0,0,1,2.14,3.81L167,136.74a2,2,0,0,1-3,1.79L159.34,136a3.07,3.07,0,0,0-.62-.22,2.82,2.82,0,0,0-3.4,1.66,3.06,3.06,0,0,0,1.47,3.8l11,6a2.75,2.75,0,0,0,.63.25l.33.07a2.79,2.79,0,0,0,2.46-.18l37.08-21.12a2.9,2.9,0,0,0,1.47-2.54l0-42.43A2.91,2.91,0,0,0,209.45,79.83ZM172.1,96.21,145.47,81.39a2.55,2.55,0,0,1-.07-4.49L166.8,64a2.87,2.87,0,0,1,2.74.05L196,79.6a2.53,2.53,0,0,1,0,4.48L174.8,96.26A2.84,2.84,0,0,1,172.1,96.21ZM203,119.4a2.6,2.6,0,0,1-1.28,2.24L179.3,134.4a2.55,2.55,0,0,1-3.78-2.26l.25-25.26a2.51,2.51,0,0,1,1.26-2.19l22.19-13A2.55,2.55,0,0,1,203,94Z"/><rect class="cls-2" x="106.88" y="105.19" width="33.45" height="8.01" rx="4" transform="translate(-37.16 72.4) rotate(-28.56)"/><path class="cls-2" d="M117.07,132l0-.06a4.1,4.1,0,0,1,1.58-5.57l37-20.64a4,4,0,0,1,5.45,1.55h0a4,4,0,0,1-1.55,5.45L122.3,133.45A3.84,3.84,0,0,1,117.07,132Z"/><rect class="cls-2" x="122.53" y="133.94" width="33.45" height="8.01" rx="4" transform="translate(-49.48 85.02) rotate(-29.06)"/><polygon class="cls-2" points="94.97 99 94.97 146.68 65.27 119.92 65.27 147.73 55.15 147.73 55.15 100.05 85 124.84 85 99 94.97 99"/><path class="cls-2" d="M298.54,99.53v10.25H288.15v38.48h-10V109.78H267.79V99.53Z"/><path class="cls-2" d="M254.71,139.56a12,12,0,0,1-3.66,4.51,16.47,16.47,0,0,1-5.52,2.66,25.48,25.48,0,0,1-6.78.88,31.53,31.53,0,0,1-19.38-6.83l5.47-8.42a30.2,30.2,0,0,0,7.38,4,19.9,19.9,0,0,0,6.86,1.35,7.12,7.12,0,0,0,4.09-.93,2.85,2.85,0,0,0,1.31-2.44v-.17a2.46,2.46,0,0,0-.76-1.77,6.45,6.45,0,0,0-2.07-1.3,29.06,29.06,0,0,0-3-1.06c-1.12-.33-2.3-.7-3.54-1.09a49.76,49.76,0,0,1-4.76-1.64,17.33,17.33,0,0,1-4.34-2.53,12.47,12.47,0,0,1-3.16-3.84,11.66,11.66,0,0,1-1.22-5.56v-.17a13.3,13.3,0,0,1,4.85-10.61,15,15,0,0,1,5.22-2.78,21.58,21.58,0,0,1,6.45-.93,28.9,28.9,0,0,1,8.72,1.39,32.64,32.64,0,0,1,8.13,3.83L250.12,115a40,40,0,0,0-6.57-3.07,17.19,17.19,0,0,0-5.65-1.14,5.83,5.83,0,0,0-3.53.88,2.69,2.69,0,0,0-1.18,2.24v.16a2.23,2.23,0,0,0,.75,1.65,8.61,8.61,0,0,0,2,1.35,28.54,28.54,0,0,0,2.9,1.22c1.1.39,2.26.78,3.5,1.18,1.57.5,3.17,1.11,4.8,1.81a19.64,19.64,0,0,1,4.38,2.57,12.76,12.76,0,0,1,3.21,3.71,10.47,10.47,0,0,1,1.26,5.3V133A15,15,0,0,1,254.71,139.56Z"/><path class="cls-3" d="M55.48,160.67v-7.53h.8v7.53Z"/><path class="cls-3" d="M63.93,155a2.73,2.73,0,0,1,1.21.26A1.94,1.94,0,0,1,66,156a2.84,2.84,0,0,1,.29,1.35v3.28h-.76v-3.2a1.83,1.83,0,0,0-.45-1.35,1.65,1.65,0,0,0-1.25-.46,2.2,2.2,0,0,0-1,.24,1.66,1.66,0,0,0-.69.7,2.35,2.35,0,0,0-.24,1.1v3h-.76V155h.73v1.55l-.12-.29a2,2,0,0,1,.86-1A2.73,2.73,0,0,1,63.93,155Z"/><path class="cls-3" d="M72.14,160.67,69.63,155h.79l2.31,5.24h-.38L74.68,155h.76l-2.52,5.65Z"/><path class="cls-3" d="M81.22,160.73a3.08,3.08,0,0,1-1.54-.38,2.58,2.58,0,0,1-1.05-1,2.92,2.92,0,0,1-.37-1.49,3,3,0,0,1,.36-1.48A2.68,2.68,0,0,1,81,155a2.74,2.74,0,0,1,1.41.36,2.57,2.57,0,0,1,1,1,3.19,3.19,0,0,1,.35,1.5V158a.49.49,0,0,0,0,.12H78.84v-.57h4.5l-.3.23a2.21,2.21,0,0,0-.26-1.1,1.9,1.9,0,0,0-.72-.74,2,2,0,0,0-1-.27,2,2,0,0,0-1,.27,1.86,1.86,0,0,0-.72.75,2.22,2.22,0,0,0-.26,1.11v.12a2.2,2.2,0,0,0,.28,1.13,2,2,0,0,0,.8.76,2.36,2.36,0,0,0,1.17.28,2.56,2.56,0,0,0,1-.18,2.12,2.12,0,0,0,.77-.56l.43.49a2.5,2.5,0,0,1-.94.69A3.17,3.17,0,0,1,81.22,160.73Z"/><path class="cls-3" d="M90.68,155a2.73,2.73,0,0,1,1.21.26,1.94,1.94,0,0,1,.82.81,2.73,2.73,0,0,1,.29,1.35v3.28h-.76v-3.2a1.83,1.83,0,0,0-.45-1.35,1.63,1.63,0,0,0-1.25-.46,2.2,2.2,0,0,0-1.05.24,1.72,1.72,0,0,0-.69.7,2.35,2.35,0,0,0-.24,1.1v3H87.8V155h.73v1.55l-.12-.29a2.05,2.05,0,0,1,.86-1A2.76,2.76,0,0,1,90.68,155Z"/><path class="cls-3" d="M96.66,155.66V155h3.5v.64Zm2.67,5.07a1.5,1.5,0,0,1-1.66-1.65v-5.3h.77V159a1.06,1.06,0,0,0,.25.76,1,1,0,0,0,.73.27,1.23,1.23,0,0,0,.83-.29l.27.55a1.57,1.57,0,0,1-.54.3A2.38,2.38,0,0,1,99.33,160.73Z"/><path class="cls-3" d="M106.48,160.73a2.87,2.87,0,0,1-1.47-.38,2.7,2.7,0,0,1-1-1,3.11,3.11,0,0,1,0-3,2.67,2.67,0,0,1,1-1,2.87,2.87,0,0,1,1.47-.37,2.92,2.92,0,0,1,1.49.37,2.67,2.67,0,0,1,1,1,3.11,3.11,0,0,1,0,3,2.57,2.57,0,0,1-1,1A3,3,0,0,1,106.48,160.73Zm0-.68a2.08,2.08,0,0,0,1.09-.28,2.06,2.06,0,0,0,.75-.77,2.63,2.63,0,0,0,0-2.32,2.06,2.06,0,0,0-.75-.77,2.16,2.16,0,0,0-1.08-.27,2.1,2.1,0,0,0-1.07.27,2,2,0,0,0-.76.77,2.54,2.54,0,0,0,0,2.32,2.06,2.06,0,0,0,.75.77A2,2,0,0,0,106.48,160.05Z"/><path class="cls-3" d="M113.4,160.67V155h.73v1.54l-.08-.27a1.9,1.9,0,0,1,.8-1,2.6,2.6,0,0,1,1.39-.34v.74h-.17a1.79,1.79,0,0,0-1.4.55,2.15,2.15,0,0,0-.51,1.54v2.88Z"/><path class="cls-3" d="M120.39,162.81a2.17,2.17,0,0,1-.76-.13,1.65,1.65,0,0,1-.62-.38l.36-.57a1.6,1.6,0,0,0,.47.31,1.28,1.28,0,0,0,.56.12,1,1,0,0,0,.65-.21,1.87,1.87,0,0,0,.52-.74l.37-.83.09-.12,2.32-5.24h.75l-2.83,6.33a2.94,2.94,0,0,1-.52.87,1.57,1.57,0,0,1-.62.46A2,2,0,0,1,120.39,162.81Zm1.51-2L119.29,155h.8l2.3,5.19Z"/><path class="cls-3" d="M134.11,160.67v-7.53h.65l3.45,5.88h-.35l3.41-5.88h.66v7.53h-.77v-6.33h.19l-3.14,5.37h-.38l-3.16-5.37h.2v6.33Z"/><path class="cls-3" d="M148.28,160.73a2.67,2.67,0,0,1-1.1-.21,1.66,1.66,0,0,1-.71-.58,1.5,1.5,0,0,1-.25-.86,1.57,1.57,0,0,1,.21-.8,1.44,1.44,0,0,1,.69-.58,3,3,0,0,1,1.28-.22h1.95v.57h-1.93a1.65,1.65,0,0,0-1.13.29,1,1,0,0,0,.06,1.49,1.64,1.64,0,0,0,1.05.29,2.06,2.06,0,0,0,1.12-.29,1.68,1.68,0,0,0,.68-.86l.17.53a1.75,1.75,0,0,1-.75.89A2.49,2.49,0,0,1,148.28,160.73Zm1.95-.06v-1.25l0-.2v-2.09a1.47,1.47,0,0,0-.4-1.1,1.67,1.67,0,0,0-1.2-.39,3,3,0,0,0-1,.18,2.64,2.64,0,0,0-.84.48l-.34-.57a3.1,3.1,0,0,1,1-.56,4.12,4.12,0,0,1,1.27-.2,2.46,2.46,0,0,1,1.7.54,2.18,2.18,0,0,1,.59,1.66v3.5Z"/><path class="cls-3" d="M158.4,155a2.76,2.76,0,0,1,1.21.26,1.92,1.92,0,0,1,.81.81,2.72,2.72,0,0,1,.3,1.35v3.28H160v-3.2a1.83,1.83,0,0,0-.45-1.35,1.66,1.66,0,0,0-1.25-.46,2.17,2.17,0,0,0-1,.24,1.66,1.66,0,0,0-.69.7,2.35,2.35,0,0,0-.24,1.1v3h-.77V155h.74v1.55l-.12-.29a2,2,0,0,1,.86-1A2.73,2.73,0,0,1,158.4,155Z"/><path class="cls-3" d="M166.85,160.73a2.67,2.67,0,0,1-1.1-.21,1.75,1.75,0,0,1-.72-.58,1.57,1.57,0,0,1-.24-.86,1.47,1.47,0,0,1,.21-.8,1.37,1.37,0,0,1,.68-.58,3.09,3.09,0,0,1,1.29-.22h1.95v.57H167a1.65,1.65,0,0,0-1.13.29.9.9,0,0,0-.32.72.92.92,0,0,0,.37.77,1.69,1.69,0,0,0,1.06.29,2,2,0,0,0,1.11-.29,1.75,1.75,0,0,0,.69-.86l.17.53a1.8,1.8,0,0,1-.75.89A2.49,2.49,0,0,1,166.85,160.73Zm2-.06v-1.25l0-.2v-2.09a1.43,1.43,0,0,0-.41-1.1,1.67,1.67,0,0,0-1.2-.39,3,3,0,0,0-1,.18,2.64,2.64,0,0,0-.84.48l-.34-.57a3,3,0,0,1,1-.56,4.07,4.07,0,0,1,1.27-.2,2.43,2.43,0,0,1,1.69.54,2.15,2.15,0,0,1,.6,1.66v3.5Z"/><path class="cls-3" d="M176.35,160.46a3,3,0,0,1-1.45-.35,2.67,2.67,0,0,1-1-1,2.93,2.93,0,0,1,0-2.85,2.55,2.55,0,0,1,1-1,3,3,0,0,1,1.45-.35,2.93,2.93,0,0,1,1.36.31,2.3,2.3,0,0,1,.95.93,2.88,2.88,0,0,1,.36,1.49,2.92,2.92,0,0,1-.36,1.5,2.3,2.3,0,0,1-.95.93A2.82,2.82,0,0,1,176.35,160.46Zm.14,2.35a4.82,4.82,0,0,1-1.48-.22,3,3,0,0,1-1.16-.65l.39-.58a2.89,2.89,0,0,0,1,.57,3.63,3.63,0,0,0,1.24.21,2.2,2.2,0,0,0,1.58-.5,2.12,2.12,0,0,0,.5-1.56v-1.41l.11-1-.07-1V155h.73v5a2.85,2.85,0,0,1-.72,2.15A2.91,2.91,0,0,1,176.49,162.81Zm-.07-3a2.33,2.33,0,0,0,1.11-.26,2,2,0,0,0,.77-.74,2.12,2.12,0,0,0,.28-1.08,2.08,2.08,0,0,0-.28-1.07,2,2,0,0,0-.77-.73,2.33,2.33,0,0,0-1.11-.26,2.38,2.38,0,0,0-1.1.26,2,2,0,0,0-.76.73,2.08,2.08,0,0,0-.28,1.07,2.12,2.12,0,0,0,.28,1.08,1.93,1.93,0,0,0,.76.74A2.38,2.38,0,0,0,176.42,159.78Z"/><path class="cls-3" d="M184.31,153.78a.58.58,0,0,1-.4-.16.53.53,0,0,1-.16-.39.49.49,0,0,1,.16-.38.54.54,0,0,1,.4-.16.57.57,0,0,1,.4.15.49.49,0,0,1,.16.38.54.54,0,0,1-.16.4A.56.56,0,0,1,184.31,153.78Zm-.39,6.89V155h.77v5.65Z"/><path class="cls-3" d="M192.17,155a2.7,2.7,0,0,1,1.21.26,1.94,1.94,0,0,1,.82.81,2.72,2.72,0,0,1,.3,1.35v3.28h-.77v-3.2a1.87,1.87,0,0,0-.44-1.35,1.67,1.67,0,0,0-1.26-.46,2.2,2.2,0,0,0-1.05.24,1.7,1.7,0,0,0-.68.7,2.24,2.24,0,0,0-.25,1.1v3h-.76V155H190v1.55l-.12-.29a2.05,2.05,0,0,1,.86-1A2.78,2.78,0,0,1,192.17,155Z"/><path class="cls-3" d="M201.31,160.46a3.06,3.06,0,0,1-1.46-.35,2.57,2.57,0,0,1-1-1,2.93,2.93,0,0,1,0-2.85,2.46,2.46,0,0,1,1-1,3.06,3.06,0,0,1,1.46-.35,2.86,2.86,0,0,1,1.35.31,2.38,2.38,0,0,1,1,.93,3,3,0,0,1,.35,1.49,3,3,0,0,1-.35,1.5,2.38,2.38,0,0,1-1,.93A2.75,2.75,0,0,1,201.31,160.46Zm.14,2.35a4.89,4.89,0,0,1-1.49-.22,2.91,2.91,0,0,1-1.15-.65l.39-.58a2.85,2.85,0,0,0,1,.57,3.67,3.67,0,0,0,1.24.21,2.21,2.21,0,0,0,1.59-.5,2.16,2.16,0,0,0,.5-1.56v-1.41l.11-1-.08-1V155h.73v5a2.84,2.84,0,0,1-.71,2.15A2.93,2.93,0,0,1,201.45,162.81Zm-.07-3a2.33,2.33,0,0,0,1.11-.26,1.93,1.93,0,0,0,.76-.74,2,2,0,0,0,.28-1.08,2,2,0,0,0-1-1.8,2.48,2.48,0,0,0-2.21,0,2,2,0,0,0-.77.73,2.07,2.07,0,0,0-.27,1.07,2.11,2.11,0,0,0,.27,1.08,2,2,0,0,0,.77.74A2.32,2.32,0,0,0,201.38,159.78Z"/><path class="cls-3" d="M216,160.67l-2.53-7.53h.81l2.38,7.09h-.41l2.45-7.09h.73l2.43,7.09h-.39l2.4-7.09h.76l-2.54,7.53h-.84L219,154h.22l-2.33,6.72Z"/><path class="cls-3" d="M230.4,160.73a3.15,3.15,0,0,1-1.55-.38,2.62,2.62,0,0,1-1-1,2.92,2.92,0,0,1-.38-1.49,2.88,2.88,0,0,1,.37-1.48,2.82,2.82,0,0,1,3.81-1,2.57,2.57,0,0,1,1,1,3.19,3.19,0,0,1,.35,1.5V158a.49.49,0,0,0,0,.12H228v-.57h4.5l-.3.23a2.32,2.32,0,0,0-.26-1.1,2,2,0,0,0-.72-.74,2.14,2.14,0,0,0-2.08,0,2,2,0,0,0-.73.75,2.33,2.33,0,0,0-.25,1.11v.12a2.2,2.2,0,0,0,.28,1.13,2,2,0,0,0,.8.76,2.34,2.34,0,0,0,1.16.28,2.58,2.58,0,0,0,1-.18,2.21,2.21,0,0,0,.77-.56l.43.49a2.5,2.5,0,0,1-.94.69A3.17,3.17,0,0,1,230.4,160.73Z"/><path class="cls-3" d="M237,160.67v-8h.76v4l-.11,1.14.08,1.14v1.7Zm2.91.06a2.68,2.68,0,0,1-1.33-.34,2.43,2.43,0,0,1-.94-1,3.27,3.27,0,0,1-.34-1.56,3.13,3.13,0,0,1,.35-1.56,2.4,2.4,0,0,1,.94-1,2.64,2.64,0,0,1,1.32-.33,2.91,2.91,0,0,1,1.45.36,2.62,2.62,0,0,1,1,1,3.23,3.23,0,0,1,0,3,2.58,2.58,0,0,1-1,1A2.92,2.92,0,0,1,239.89,160.73Zm0-.68a2.07,2.07,0,0,0,1.83-1.05,2.54,2.54,0,0,0,0-2.32,2,2,0,0,0-.76-.77,2.1,2.1,0,0,0-1.07-.27,2.16,2.16,0,0,0-1.08.27,2,2,0,0,0-.76.77,2.63,2.63,0,0,0,0,2.32,2,2,0,0,0,.76.77A2.07,2.07,0,0,0,239.84,160.05Z"/><path class="cls-3" d="M248.26,160.73a4.34,4.34,0,0,1-1.32-.2,3,3,0,0,1-1-.5l.34-.61a3,3,0,0,0,.88.45,3.31,3.31,0,0,0,1.13.19,2.16,2.16,0,0,0,1.17-.25.81.81,0,0,0,.35-.68.65.65,0,0,0-.2-.49,1.33,1.33,0,0,0-.52-.26,4.52,4.52,0,0,0-.72-.16c-.27,0-.53-.09-.79-.15a3.22,3.22,0,0,1-.72-.25,1.54,1.54,0,0,1-.52-.46,1.36,1.36,0,0,1-.2-.78,1.4,1.4,0,0,1,.26-.82,1.68,1.68,0,0,1,.76-.58,3.14,3.14,0,0,1,1.22-.21,4.16,4.16,0,0,1,1.1.15,2.87,2.87,0,0,1,.9.38l-.33.61a2.7,2.7,0,0,0-.81-.37,3.17,3.17,0,0,0-.86-.11,2,2,0,0,0-1.12.26.81.81,0,0,0-.36.67.63.63,0,0,0,.2.51,1.23,1.23,0,0,0,.52.28,4.75,4.75,0,0,0,.72.17c.26,0,.53.1.79.16a3.8,3.8,0,0,1,.72.24,1.42,1.42,0,0,1,.53.44,1.3,1.3,0,0,1,.19.75,1.4,1.4,0,0,1-.27.86,1.8,1.8,0,0,1-.8.56A3.54,3.54,0,0,1,248.26,160.73Z"/><path class="cls-3" d="M256.87,160.73a3.1,3.1,0,0,1-1.55-.38,2.58,2.58,0,0,1-1-1,2.92,2.92,0,0,1-.37-1.49,3,3,0,0,1,.36-1.48,2.68,2.68,0,0,1,2.4-1.39,2.8,2.8,0,0,1,1.42.36,2.62,2.62,0,0,1,1,1,3.08,3.08,0,0,1,.36,1.5s0,.08,0,.12,0,.08,0,.12h-4.91v-.57H259l-.31.23a2.21,2.21,0,0,0-.26-1.1,1.87,1.87,0,0,0-.71-.74,2.16,2.16,0,0,0-2.09,0,1.86,1.86,0,0,0-.72.75,2.33,2.33,0,0,0-.26,1.11v.12a2.2,2.2,0,0,0,.28,1.13,2,2,0,0,0,.8.76,2.36,2.36,0,0,0,1.17.28,2.56,2.56,0,0,0,1-.18,2.12,2.12,0,0,0,.77-.56l.43.49a2.42,2.42,0,0,1-.94.69A3.15,3.15,0,0,1,256.87,160.73Z"/><path class="cls-3" d="M263.44,160.67V155h.73v1.54l-.08-.27a1.9,1.9,0,0,1,.8-1,2.6,2.6,0,0,1,1.39-.34v.74h-.17a1.78,1.78,0,0,0-1.4.55,2.15,2.15,0,0,0-.51,1.54v2.88Z"/><path class="cls-3" d="M271.84,160.67,269.33,155h.8l2.3,5.24h-.38l2.34-5.24h.75l-2.51,5.65Z"/><path class="cls-3" d="M279.08,153.78a.58.58,0,0,1-.4-.16.53.53,0,0,1-.16-.39.49.49,0,0,1,.16-.38.54.54,0,0,1,.4-.16.57.57,0,0,1,.4.15.49.49,0,0,1,.16.38.54.54,0,0,1-.16.4A.56.56,0,0,1,279.08,153.78Zm-.39,6.89V155h.77v5.65Z"/><path class="cls-3" d="M286.4,160.73a3,3,0,0,1-1.5-.38,2.59,2.59,0,0,1-1-1,3.11,3.11,0,0,1,0-3,2.63,2.63,0,0,1,1-1,3.22,3.22,0,0,1,2.81-.09,2.17,2.17,0,0,1,.91.84l-.57.39a1.77,1.77,0,0,0-.72-.64,2.26,2.26,0,0,0-.94-.2,2.16,2.16,0,0,0-1.08.27,2,2,0,0,0-.77.77,2.4,2.4,0,0,0-.28,1.16,2.34,2.34,0,0,0,.28,1.16,2,2,0,0,0,.77.77,2.07,2.07,0,0,0,1.08.28,2.12,2.12,0,0,0,.94-.21,1.72,1.72,0,0,0,.72-.62l.57.39a2.21,2.21,0,0,1-.91.83A3,3,0,0,1,286.4,160.73Z"/><path class="cls-3" d="M294.89,160.73a3.12,3.12,0,0,1-1.55-.38,2.62,2.62,0,0,1-1-1,2.92,2.92,0,0,1-.38-1.49,3,3,0,0,1,.36-1.48,2.68,2.68,0,0,1,2.41-1.39,2.74,2.74,0,0,1,1.41.36,2.64,2.64,0,0,1,1,1,3.19,3.19,0,0,1,.35,1.5.49.49,0,0,1,0,.12v.12H292.5v-.57H297l-.3.23a2.32,2.32,0,0,0-.26-1.1,2,2,0,0,0-.72-.74,2,2,0,0,0-1-.27,2.05,2.05,0,0,0-1.05.27,1.92,1.92,0,0,0-.72.75,2.33,2.33,0,0,0-.25,1.11v.12A2.2,2.2,0,0,0,293,159a2,2,0,0,0,.8.76,2.34,2.34,0,0,0,1.16.28,2.58,2.58,0,0,0,1-.18,2.09,2.09,0,0,0,.76-.56l.44.49a2.53,2.53,0,0,1-.95.69A3.12,3.12,0,0,1,294.89,160.73Z"/></svg>