<?xml version="1.0" encoding="utf-8"?>
<!-- Generator: Adobe Illustrator 26.0.1, SVG Export Plug-In . SVG Version: 6.00 Build 0)  -->
<svg version="1.1" id="Layer_1" xmlns="http://www.w3.org/2000/svg" xmlns:xlink="http://www.w3.org/1999/xlink" x="0px" y="0px"
	 viewBox="0 0 122.9 115.7" style="enable-background:new 0 0 122.9 115.7;" xml:space="preserve">
<style type="text/css">
	.st0{fill-rule:evenodd;clip-rule:evenodd;fill:#F0F8FF;}
</style>
<g>
	<g>
		<path class="st0" d="M116.6,3.7l-3.8,53.8L95,42.4c-19.5,8.7-30,24-30.5,43.8c-18-27-7.5-50.4,12.5-66L65,3L116.6,3.7L116.6,3.7z
			 M28.3,0h14.6v19.7H32.7c-4.2,0-8,1.7-10.7,4.5c-2.8,2.8-4.5,6.5-4.5,10.7l0,46c0,4.2,1.8,7.9,4.5,10.7c2.8,2.8,6.6,4.5,10.7,4.5
			h58c4.2,0,7.9-1.7,10.7-4.5s4.5-6.6,4.5-10.7v-7h17v11.3c0,7.8-3.2,17-8.3,22.2c-5.1,5.1-12.2,8.3-20,8.3H28.3
			c-7.8,0-14.9-3.2-20-8.3C3.2,102.3,0,95.2,0,87.4l0-59.1c0-7.8,3.2-14.9,8.3-20S20.5,0,28.3,0L28.3,0z"/>
	</g>
</g>
</svg>
