<svg xmlns="http://www.w3.org/2000/svg" xmlns:xlink="http://www.w3.org/1999/xlink" width="500" zoomAndPan="magnify" viewBox="0 0 375 374.999991" height="500" preserveAspectRatio="xMidYMid meet" version="1.0"><defs><clipPath id="a97399b7ac"><path d="M 21.09375 1 L 354 1 L 354 375 L 21.09375 375 Z M 21.09375 1 " clip-rule="nonzero"/></clipPath></defs><g clip-path="url(#a97399b7ac)"><path fill="#ffffff" d="M 336.574219 158.449219 L 72.875 6.199219 C 62.09375 -0.0234375 49.222656 -0.0234375 38.441406 6.199219 C 38.355469 6.25 38.273438 6.308594 38.1875 6.359375 C 38.03125 6.449219 37.878906 6.542969 37.726562 6.644531 C 27.386719 12.945312 21.226562 23.851562 21.226562 36.015625 L 21.226562 340.515625 C 21.226562 352.964844 27.664062 364.109375 38.441406 370.332031 C 43.832031 373.445312 49.746094 375 55.65625 375 C 61.570312 375 67.484375 373.445312 72.875 370.332031 L 336.578125 218.085938 C 347.355469 211.859375 353.792969 200.714844 353.792969 188.265625 C 353.792969 175.816406 347.355469 164.671875 336.574219 158.449219 Z M 43.386719 343.105469 C 43.226562 342.304688 43.128906 341.445312 43.128906 340.515625 L 43.128906 36.015625 C 43.128906 34.378906 43.40625 32.953125 43.847656 31.710938 L 192.886719 187.167969 Z M 75.351562 32.921875 L 246.199219 131.558594 L 208.058594 171.339844 Z M 70.625 346.339844 L 208.058594 202.988281 L 247.558594 244.191406 Z M 325.625 199.117188 L 267.085938 232.914062 L 223.230469 187.167969 L 265.726562 142.835938 L 325.625 177.414062 C 331.277344 180.679688 331.890625 186.09375 331.890625 188.265625 C 331.890625 190.441406 331.277344 195.851562 325.625 199.117188 Z M 325.625 199.117188 " fill-opacity="1" fill-rule="nonzero"/></g></svg>