<?xml version="1.0" encoding="utf-8"?>
<!-- Generator: Adobe Illustrator 26.0.1, SVG Export Plug-In . SVG Version: 6.00 Build 0)  -->
<svg version="1.1" id="Layer_1" xmlns="http://www.w3.org/2000/svg" xmlns:xlink="http://www.w3.org/1999/xlink" x="0px" y="0px"
	 viewBox="0 0 122.9 109.4" style="enable-background:new 0 0 122.9 109.4;" xml:space="preserve">
<style type="text/css">
	.st0{fill-rule:evenodd;clip-rule:evenodd;fill:#00D8FF;}
	.st1{fill:#FFFFFF;}
	.st2{fill:#00D8FF;}
</style>
<g>
	<path class="st0" d="M122.9,54.7c0-8.1-10.2-15.9-25.8-20.6c3.6-15.9,2-28.6-5.1-32.7C90.4,0.5,88.5,0,86.4,0v5.6
		c1.2,0,2.1,0.2,2.9,0.7c3.4,1.9,4.9,9.4,3.7,19c-0.3,2.4-0.7,4.8-1.3,7.4c-4.9-1.2-10.3-2.1-15.9-2.7c-3.4-4.6-6.9-8.8-10.4-12.5
		c8.2-7.6,15.8-11.8,21-11.8V0l0,0c-6.9,0-15.9,4.9-25,13.4C52.3,5,43.3,0.1,36.4,0.1v5.6c5.2,0,12.9,4.1,21,11.7
		c-3.5,3.7-7,7.9-10.3,12.5c-5.7,0.6-11,1.5-15.9,2.8c-0.6-2.5-1-4.9-1.3-7.3c-1.2-9.6,0.3-17,3.7-19c0.8-0.4,1.7-0.7,2.9-0.7V0.1
		l0,0c-2.1,0-4,0.4-5.7,1.4c-7,4.1-8.6,16.7-5,32.6C10.1,38.9,0,46.6,0,54.7s10.2,15.9,25.8,20.6c-3.6,15.9-2,28.6,5.1,32.7
		c1.6,0.9,3.5,1.4,5.6,1.4c6.9,0,15.9-4.9,25-13.4c9.1,8.5,18.1,13.3,25,13.3c2.1,0,4-0.4,5.7-1.4c7-4.1,8.6-16.7,5-32.6
		C112.7,70.6,122.9,62.8,122.9,54.7L122.9,54.7z M72.9,54.7c0-6.3-5.1-11.5-11.5-11.5c-6.3,0-11.5,5.1-11.5,11.5S55,66.2,61.4,66.2
		C67.7,66.2,72.9,61,72.9,54.7L72.9,54.7z M36.3,0.1L36.3,0.1L36.3,0.1L36.3,0.1z M90.3,38c-0.9,3.2-2.1,6.6-3.4,9.9
		c-1-2-2.1-4-3.3-6c-1.2-2-2.4-4-3.6-5.9C83.6,36.6,87,37.2,90.3,38L90.3,38z M78.8,64.7c-1.9,3.4-4,6.6-6,9.6
		c-3.7,0.3-7.5,0.5-11.3,0.5s-7.6-0.2-11.3-0.5c-2.1-3-4.1-6.2-6.1-9.5c-1.9-3.3-3.6-6.6-5.2-10c1.5-3.4,3.3-6.7,5.2-10
		c2-3.4,4-6.6,6-9.6c3.7-0.3,7.5-0.5,11.3-0.5s7.6,0.2,11.3,0.5c2.1,3,4.1,6.2,6.1,9.5c1.9,3.3,3.6,6.6,5.2,10
		C82.4,58.1,80.7,61.4,78.8,64.7L78.8,64.7z M86.9,61.4c1.3,3.4,2.5,6.7,3.5,10c-3.3,0.8-6.7,1.5-10.3,2c1.2-1.9,2.4-3.9,3.6-5.9
		C84.8,65.5,85.9,63.4,86.9,61.4L86.9,61.4z M61.5,88.2c-2.3-2.4-4.7-5.1-7-8c2.2,0.1,4.6,0.2,6.9,0.2c2.3,0,4.7-0.1,7-0.2
		C66.1,83.1,63.8,85.8,61.5,88.2L61.5,88.2z M42.9,73.4c-3.6-0.5-7-1.2-10.3-2c0.9-3.2,2.1-6.6,3.4-9.9c1,2,2.1,4,3.3,6
		C40.4,69.6,41.6,71.5,42.9,73.4L42.9,73.4z M61.4,21.3c2.3,2.4,4.7,5.1,7,8c-2.2-0.1-4.6-0.2-6.9-0.2c-2.3,0-4.7,0-7,0.2
		C56.7,26.4,59.1,23.7,61.4,21.3L61.4,21.3z M42.8,36c-1.2,2-2.4,4-3.6,6s-2.2,4-3.3,6c-1.3-3.4-2.5-6.7-3.5-10
		C35.8,37.2,39.2,36.6,42.8,36L42.8,36z M20.2,67.4c-8.9-3.8-14.6-8.7-14.6-12.7s5.7-8.9,14.6-12.7c2.1-0.9,4.5-1.8,6.9-2.5
		c1.4,4.9,3.3,10,5.6,15.2C30.4,60,28.6,65.1,27.2,70C24.7,69.2,22.3,68.3,20.2,67.4L20.2,67.4z M33.6,103.2
		c-3.4-1.9-4.9-9.4-3.7-19c0.3-2.3,0.7-4.8,1.3-7.4c4.9,1.2,10.3,2.1,15.9,2.7c3.4,4.6,6.9,8.8,10.4,12.5
		c-8.2,7.6-15.8,11.8-21,11.8C35.3,103.8,34.4,103.6,33.6,103.2L33.6,103.2z M93.1,84.1c1.2,9.6-0.3,17-3.7,19
		c-0.8,0.4-1.7,0.7-2.9,0.7c-5.2,0-12.9-4.1-21-11.7c3.5-3.7,7-7.9,10.3-12.5c5.7-0.6,11-1.5,15.9-2.8
		C92.3,79.3,92.8,81.8,93.1,84.1L93.1,84.1z M102.7,67.4c-2.2,0.9-4.5,1.8-6.9,2.5c-1.4-4.9-3.3-10-5.6-15.2
		c2.3-5.2,4.2-10.3,5.6-15.2c2.5,0.8,4.8,1.6,7,2.5c8.9,3.8,14.6,8.7,14.6,12.7C117.3,58.7,111.6,63.6,102.7,67.4L102.7,67.4z"/>
</g>
<path class="st1" d="M66.6,75.5H55.3c-10.9,0-19.7-8.8-19.7-19.7v0c0-10.9,8.8-19.7,19.7-19.7h11.3c10.9,0,19.7,8.8,19.7,19.7v0
	C86.4,66.6,77.5,75.5,66.6,75.5z"/>
<g>
	<path class="st2" d="M51,66.1c-1.6,0-3.1-0.3-4.4-0.8c-1.3-0.5-2.4-1.3-3.3-2.3l3.8-4.5c0.6,0.7,1.1,1.2,1.7,1.5
		c0.5,0.4,1.1,0.5,1.7,0.5c1.5,0,2.3-0.9,2.3-2.6v-8h-7.2v-5.3h14.2v12.9c0,2.9-0.7,5-2.2,6.5C56,65.4,53.8,66.1,51,66.1z"/>
	<path class="st2" d="M69.2,65.9c-1.4,0-2.8-0.1-4.1-0.5c-1.4-0.3-2.5-0.7-3.3-1.2l1.9-4.5c0.8,0.5,1.7,0.8,2.7,1.1
		c1,0.3,2,0.4,3,0.4c0.8,0,1.4-0.1,1.7-0.2c0.3-0.1,0.4-0.3,0.4-0.6c0-0.2-0.2-0.4-0.5-0.5c-0.3-0.1-0.8-0.2-1.4-0.3
		s-1.2-0.1-1.8-0.2c-0.7-0.1-1.3-0.2-2-0.4c-0.7-0.2-1.3-0.5-1.9-0.8c-0.6-0.4-1-0.8-1.4-1.5c-0.3-0.6-0.5-1.4-0.5-2.3
		c0-1,0.3-2,0.9-2.8c0.6-0.8,1.6-1.5,2.8-2c1.3-0.5,2.8-0.8,4.6-0.8c1.2,0,2.4,0.1,3.6,0.3c1.2,0.2,2.2,0.6,3.1,1l-1.9,4.5
		c-0.8-0.5-1.7-0.8-2.5-0.9c-0.8-0.2-1.6-0.3-2.3-0.3c-0.9,0-1.4,0.1-1.8,0.2c-0.3,0.2-0.5,0.3-0.5,0.5c0,0.2,0.2,0.4,0.5,0.5
		s0.8,0.2,1.4,0.3s1.2,0.1,1.8,0.2c0.7,0.1,1.3,0.2,2,0.4c0.7,0.2,1.3,0.5,1.8,0.8c0.6,0.4,1,0.8,1.4,1.5c0.3,0.6,0.5,1.4,0.5,2.3
		c0,1-0.3,1.9-0.9,2.7c-0.6,0.9-1.6,1.5-2.8,2S71.1,65.9,69.2,65.9z"/>
</g>
</svg>
