<?xml version="1.0" encoding="utf-8"?>
<!-- Generator: Adobe Illustrator 26.0.1, SVG Export Plug-In . SVG Version: 6.00 Build 0)  -->
<svg version="1.1" id="Layer_1" xmlns="http://www.w3.org/2000/svg" xmlns:xlink="http://www.w3.org/1999/xlink" x="0px" y="0px"
	 viewBox="0 0 122.9 109.4" style="enable-background:new 0 0 122.9 109.4;" xml:space="preserve">
<style type="text/css">
	.st0{fill-rule:evenodd;clip-rule:evenodd;fill:#00D8FF;}
	.st1{fill:#FFFFFF;}
	.st2{fill:#00D8FF;}
</style>
<g>
	<path class="st0" d="M122.6,54.7c0-8.1-10.2-15.9-25.8-20.6c3.6-15.9,2-28.6-5.1-32.7C90.1,0.5,88.2,0,86.1,0v5.6
		c1.2,0,2.1,0.2,2.9,0.7c3.4,1.9,4.9,9.4,3.7,19c-0.3,2.4-0.7,4.8-1.3,7.4c-4.9-1.2-10.3-2.1-15.9-2.7c-3.4-4.6-6.9-8.8-10.4-12.5
		c8.2-7.6,15.8-11.8,21-11.8V0l0,0c-6.9,0-15.9,4.9-25,13.4C52,5,43,0.1,36.1,0.1v5.6c5.2,0,12.9,4.1,21,11.7
		c-3.5,3.7-7,7.9-10.3,12.5c-5.7,0.6-11,1.5-15.9,2.8c-0.6-2.5-1-4.9-1.3-7.3c-1.2-9.6,0.3-17,3.7-19C34.1,6,35,5.7,36.2,5.7V0.1
		l0,0c-2.1,0-4,0.4-5.7,1.4c-7,4.1-8.6,16.7-5,32.6C9.8,38.9-0.3,46.6-0.3,54.7S9.9,70.6,25.5,75.3c-3.6,15.9-2,28.6,5.1,32.7
		c1.6,0.9,3.5,1.4,5.6,1.4c6.9,0,15.9-4.9,25-13.4c9.1,8.5,18.1,13.3,25,13.3c2.1,0,4-0.4,5.7-1.4c7-4.1,8.6-16.7,5-32.6
		C112.4,70.6,122.6,62.8,122.6,54.7L122.6,54.7z M72.6,54.7c0-6.3-5.1-11.5-11.5-11.5c-6.3,0-11.5,5.1-11.5,11.5s5.1,11.5,11.5,11.5
		C67.4,66.2,72.6,61,72.6,54.7L72.6,54.7z M36,0.1L36,0.1L36,0.1L36,0.1z M90,38c-0.9,3.2-2.1,6.6-3.4,9.9c-1-2-2.1-4-3.3-6
		c-1.2-2-2.4-4-3.6-5.9C83.3,36.6,86.7,37.2,90,38L90,38z M78.5,64.7c-1.9,3.4-4,6.6-6,9.6c-3.7,0.3-7.5,0.5-11.3,0.5
		s-7.6-0.2-11.3-0.5c-2.1-3-4.1-6.2-6.1-9.5c-1.9-3.3-3.6-6.6-5.2-10c1.5-3.4,3.3-6.7,5.2-10c2-3.4,4-6.6,6-9.6
		c3.7-0.3,7.5-0.5,11.3-0.5s7.6,0.2,11.3,0.5c2.1,3,4.1,6.2,6.1,9.5c1.9,3.3,3.6,6.6,5.2,10C82.1,58.1,80.4,61.4,78.5,64.7
		L78.5,64.7z M86.6,61.4c1.3,3.4,2.5,6.7,3.5,10c-3.3,0.8-6.7,1.5-10.3,2c1.2-1.9,2.4-3.9,3.6-5.9C84.5,65.5,85.6,63.4,86.6,61.4
		L86.6,61.4z M61.2,88.2c-2.3-2.4-4.7-5.1-7-8c2.2,0.1,4.6,0.2,6.9,0.2c2.3,0,4.7-0.1,7-0.2C65.8,83.1,63.5,85.8,61.2,88.2
		L61.2,88.2z M42.6,73.4c-3.6-0.5-7-1.2-10.3-2c0.9-3.2,2.1-6.6,3.4-9.9c1,2,2.1,4,3.3,6C40.1,69.6,41.3,71.5,42.6,73.4L42.6,73.4z
		 M61.1,21.3c2.3,2.4,4.7,5.1,7,8c-2.2-0.1-4.6-0.2-6.9-0.2c-2.3,0-4.7,0-7,0.2C56.4,26.4,58.8,23.7,61.1,21.3L61.1,21.3z M42.5,36
		c-1.2,2-2.4,4-3.6,6s-2.2,4-3.3,6c-1.3-3.4-2.5-6.7-3.5-10C35.5,37.2,38.9,36.6,42.5,36L42.5,36z M19.9,67.4
		C11,63.6,5.3,58.7,5.3,54.7S11,45.8,19.9,42c2.1-0.9,4.5-1.8,6.9-2.5c1.4,4.9,3.3,10,5.6,15.2C30.1,60,28.3,65.1,26.9,70
		C24.4,69.2,22,68.3,19.9,67.4L19.9,67.4z M33.3,103.2c-3.4-1.9-4.9-9.4-3.7-19c0.3-2.3,0.7-4.8,1.3-7.4c4.9,1.2,10.3,2.1,15.9,2.7
		c3.4,4.6,6.9,8.8,10.4,12.5c-8.2,7.6-15.8,11.8-21,11.8C35,103.8,34.1,103.6,33.3,103.2L33.3,103.2z M92.8,84.1
		c1.2,9.6-0.3,17-3.7,19c-0.8,0.4-1.7,0.7-2.9,0.7c-5.2,0-12.9-4.1-21-11.7c3.5-3.7,7-7.9,10.3-12.5c5.7-0.6,11-1.5,15.9-2.8
		C92,79.3,92.5,81.8,92.8,84.1L92.8,84.1z M102.4,67.4c-2.2,0.9-4.5,1.8-6.9,2.5c-1.4-4.9-3.3-10-5.6-15.2
		c2.3-5.2,4.2-10.3,5.6-15.2c2.5,0.8,4.8,1.6,7,2.5c8.9,3.8,14.6,8.7,14.6,12.7C117,58.7,111.3,63.6,102.4,67.4L102.4,67.4z"/>
</g>
<path class="st1" d="M93.8,70.6H28.6c-8.8,0-15.9-7.1-15.9-15.9v0c0-8.8,7.1-15.9,15.9-15.9h65.3c8.8,0,15.9,7.1,15.9,15.9v0
	C109.7,63.5,102.6,70.6,93.8,70.6z"/>
<g>
	<path class="st2" d="M22.1,61.7V45.1H26l9.1,11h-1.8v-11h4.6v16.6H34l-9.1-11h1.8v11H22.1z"/>
	<path class="st2" d="M45,61.9c-1,0-1.9-0.2-2.6-0.5c-0.7-0.3-1.3-0.8-1.6-1.4c-0.4-0.6-0.6-1.3-0.6-2c0-0.8,0.2-1.5,0.6-2.1
		c0.4-0.6,1-1,1.9-1.3c0.8-0.3,1.9-0.5,3.2-0.5h3v2.4h-2.4c-0.7,0-1.2,0.1-1.5,0.3c-0.3,0.2-0.4,0.5-0.4,0.9c0,0.4,0.1,0.7,0.5,0.9
		c0.3,0.2,0.7,0.4,1.2,0.4c0.5,0,1-0.1,1.4-0.4s0.7-0.6,0.9-1.1l0.6,1.7c-0.2,0.9-0.7,1.6-1.4,2S46.1,61.9,45,61.9z M48.8,61.7v-2.4
		l-0.3-0.6v-4.4c0-0.7-0.2-1.3-0.7-1.6c-0.4-0.4-1.1-0.6-2.1-0.6c-0.6,0-1.2,0.1-1.9,0.3c-0.6,0.2-1.2,0.5-1.6,0.8l-1.5-3
		c0.7-0.5,1.6-0.8,2.6-1.1c1-0.3,2-0.4,3-0.4c2.1,0,3.7,0.5,4.8,1.4c1.1,1,1.7,2.5,1.7,4.5v7.1H48.8z"/>
	<path class="st2" d="M54.5,52.7v-3.4h9.3v3.4H54.5z M61.6,61.9c-1.6,0-2.9-0.4-3.8-1.2c-0.9-0.8-1.4-2-1.4-3.7V46h4.5v11
		c0,0.5,0.1,0.9,0.4,1.1c0.2,0.3,0.6,0.4,1,0.4c0.5,0,1-0.1,1.4-0.4l1.1,3.1c-0.4,0.3-0.9,0.5-1.4,0.6
		C62.8,61.9,62.2,61.9,61.6,61.9z"/>
	<path class="st2" d="M68.7,47.4c-0.8,0-1.5-0.2-2-0.7c-0.5-0.5-0.7-1-0.7-1.7c0-0.7,0.2-1.2,0.7-1.7c0.5-0.5,1.2-0.7,2-0.7
		c0.8,0,1.5,0.2,2,0.6c0.5,0.4,0.8,1,0.8,1.6c0,0.7-0.2,1.3-0.7,1.8C70.2,47.2,69.5,47.4,68.7,47.4z M66.4,61.7V48.8h4.5v12.9H66.4z
		"/>
	<path class="st2" d="M77.4,61.7l-5.3-12.9h4.6L81,59.6h-2.3l4.4-10.8h4.3l-5.3,12.9H77.4z"/>
	<path class="st2" d="M95,61.9c-1.5,0-2.9-0.3-4-0.9c-1.1-0.6-2-1.4-2.6-2.4c-0.6-1-0.9-2.1-0.9-3.4c0-1.3,0.3-2.4,0.9-3.4
		c0.6-1,1.4-1.8,2.5-2.4c1.1-0.6,2.3-0.9,3.6-0.9c1.3,0,2.4,0.3,3.4,0.8c1,0.5,1.9,1.3,2.5,2.3c0.6,1,0.9,2.2,0.9,3.6
		c0,0.2,0,0.3,0,0.5c0,0.2,0,0.4,0,0.6H91.1V54h7.8l-1.7,0.7c0-0.6-0.1-1.1-0.3-1.5c-0.2-0.4-0.5-0.8-0.9-1
		c-0.4-0.2-0.9-0.4-1.4-0.4c-0.6,0-1,0.1-1.4,0.4c-0.4,0.2-0.7,0.6-0.9,1c-0.2,0.4-0.3,0.9-0.3,1.5v0.7c0,0.6,0.1,1.2,0.4,1.6
		s0.6,0.8,1.1,1.1s1.1,0.4,1.8,0.4c0.6,0,1.2-0.1,1.6-0.3s0.9-0.5,1.3-0.8l2.3,2.5c-0.6,0.7-1.4,1.2-2.3,1.5
		C97.2,61.7,96.2,61.9,95,61.9z"/>
</g>
</svg>
