<?xml version="1.0" encoding="utf-8"?>
<!-- Generator: Adobe Illustrator 26.0.1, SVG Export Plug-In . SVG Version: 6.00 Build 0)  -->
<svg version="1.1"
	 id="Layer_1" image-rendering="optimizeQuality" shape-rendering="geometricPrecision" text-rendering="geometricPrecision"
	 xmlns="http://www.w3.org/2000/svg" xmlns:xlink="http://www.w3.org/1999/xlink" x="0px" y="0px" viewBox="0 0 8192 7777.1"
	 style="enable-background:new 0 0 8192 7777.1;" xml:space="preserve">
<style type="text/css">
	.st0{fill:#764ABC;stroke:#FFFFFF;stroke-miterlimit:10;}
	.st1{fill:#FFFFFF;}
</style>
<path class="st0" d="M6738.8,7777.1H1453.2C650.6,7777.1,0,7126.5,0,6323.9V1453.2C0,650.6,650.6,0,1453.2,0h5285.7
	C7541.4,0,8192,650.6,8192,1453.2v4870.8C8192,7126.5,7541.4,7777.1,6738.8,7777.1z"/>
<g>
	<path class="st1" d="M5528.8,4879.5c-71.2,82.1-167.8,135.6-274.3,152.3c-101.3,204.5-222.3,394.6-359.7,565.5
		c-142.3,176.9-304.4,335.8-481.9,472.4c-178.6,137.4-375.6,254.3-585.5,347.4c-211.9,94-440.3,165.4-679.1,212.1
		c-143.6,35.8-293,53.2-456.6,53.2c-277.3,0-547.5-57.5-781.4-166.2c-236-109.7-426.9-267.8-551.8-457.1l-0.1-0.1
		c-89.4-136.2-157.3-302.5-196.3-480.9c-21.1-96.3-33.5-195.6-37.1-295.1c-3.8-106.2,2.6-213.4,19-318.6
		c36.4-233.8,121.4-458.3,252.7-667.2c147.9-235.5,354.3-450,613.5-637.7l55.7-40.4l12.7,67.6c21.1,112.8,64.4,273.6,95.7,375.3
		l9.1,29.6l-24.9,18.3c-75.5,55.6-334.3,262-493.7,580.7l-0.1,0.3c-194.4,381.6-175.2,755.6,57.1,1111.4
		c157,235.4,402.5,376.9,729.5,420.6c406.7,51.7,806.6-24.4,1188.9-226.4l0.1,0c565.6-297.3,944.5-655.2,1189.9-1124.4
		c-64.1-74.8-102.9-173-110-280l-0.1-1.5c-2-62.3,8.1-123.2,30.1-180.9c21.3-55.8,52.7-106.4,93.3-150.2
		c40.8-43.9,88.8-78.9,142.8-104c56-26,116-40.2,178.4-42.2l1.4,0h14.9c60.4,0,119.3,11.7,175.1,34.7
		c53.9,22.3,102.6,54.2,144.8,94.8c42.3,40.7,75.9,88.2,100.1,141.2c25.1,54.9,38.8,113.4,40.8,173.9
		C5645.9,4676.6,5605.7,4790.8,5528.8,4879.5z"/>
	<path class="st1" d="M7052.3,5508.5c-10.3,71.4-25.7,141-45.7,206.8c-19.7,64.7-44,126.2-72.3,182.8l-0.1,0.3
		c-53.4,104.9-126.6,206-217.6,300.5c-95,98.7-205.6,186.3-328.9,260.2c-132,79.2-275.6,140.9-426.9,183.6
		c-163.8,46.1-335.8,69.5-511.3,69.5c-157.6,0-321.9-20.5-488.2-60.9c-162.3-39.4-327.7-98-491.6-174.3l-67.8-31.5l60.8-43.5
		c102.7-73.4,251.3-192.3,331.4-265.1l21.1-19.2l26.1,11.7c164,73.8,437.3,152.7,712.5,152.7c439.5,0,779.2-203.2,982.4-587.7
		c129.7-252.3,134.3-543.8,13.2-843l-0.3-0.7c-144.6-376-404.8-690-773.3-933.3c-478.7-316.7-1004.7-477.3-1563.5-477.3h-106.3
		c-33.5,66.8-83.6,124.8-146.2,169c-72.5,51.2-157.2,80.3-244.9,84.3l-1,0h-15.9c-60.4,0-119.4-11.7-175.1-34.8
		c-53.9-22.3-102.6-54.2-144.8-94.8c-42.3-40.7-75.9-88.2-100.1-141.2c-25.1-54.9-38.8-113.4-40.8-173.9
		c-2-62.4,8.1-123.2,30.1-180.9c21.3-55.8,52.7-106.4,93.3-150.2c40.8-43.9,88.8-78.9,142.8-104c56-26,116-40.2,178.3-42.2l1.4,0
		h14.9c84.4,0,167,23.5,239,68c63.3,39.1,115.5,92.6,152.1,155.6h93.3c239.3,0,474.6,23,699.4,68.3
		c223.2,45,438.9,112.6,640.9,200.9c202.2,88.3,393.2,198.5,567.9,327.3c175.6,129.6,336.9,279.8,479.3,446.4l0.3,0.4
		c136.3,154.5,247,322.7,329,500c75.2,162.6,126,332,151,503.6C7073.3,5200.8,7074,5357.7,7052.3,5508.5z"/>
	<path class="st1" d="M5639.2,3004l-62.1-20.7c-75.1-25-261.4-85.9-368.7-110.7l-31.9-7.3l-1.8-32.6
		c-11.2-197.2-103.3-536.3-279.3-814.9c-147.1-232.8-405.9-508.1-807.4-508.1c-5.5,0-11,0.1-16.5,0.2
		c-289,7.6-685.1,147.7-883.4,400.7l-0.5,0.6c-256.4,315-401,695.4-430,1130.7l0,0.4c-43.3,577.1,79.5,1115.7,365.1,1601.5
		c11.5-1.2,22.3-1.2,31.1-1.2h14.9c60.4,0,119.4,11.7,175.1,34.7c53.9,22.3,102.6,54.2,144.8,94.8c42.3,40.7,76,88.2,100.1,141.2
		c25.1,54.9,38.8,113.4,40.8,173.9c2,62.4-8.1,123.2-30.1,180.9c-21.3,55.8-52.7,106.4-93.3,150.2c-40.8,43.9-88.8,78.9-142.8,104
		c-56,26-116,40.2-178.4,42.2l-0.7,0h-15.6c-60.4,0-119.4-11.7-175.1-34.7c-53.9-22.3-102.6-54.2-144.8-94.8
		c-42.3-40.7-75.9-88.2-100.1-141.2c-24.9-54.5-38.6-112.6-40.8-172.6c-3.8-43.8-0.2-89.6,10.5-132.6c8-31.9,19.7-61.6,34.3-87.4
		c-103.8-182.7-191.6-371-260.9-560c-78-212.7-133.7-428.9-165.5-642.7c-71.2-478.9-24.7-951.4,138-1404.4
		c61.8-179.8,147.6-348,254.8-500c105.1-148.9,228.8-279.5,367.8-388.2c139.3-108.9,291-193.5,450.7-251.4
		c163.8-59.4,333.1-89.5,503.1-89.5c92.5,0,185.9,10.2,277.7,30.3c92.3,20.2,183.7,50.6,271.7,90.3
		c89.3,40.3,175.9,90.6,257.4,149.5c83.4,60.2,162.4,130.1,234.9,207.8c152.6,163.5,276.9,360.9,369.5,586.9
		c99.2,242.2,160.6,514.5,182.5,809.2L5639.2,3004z"/>
</g>
</svg>
