<svg id="Layer_1" data-name="Layer 1" xmlns="http://www.w3.org/2000/svg" viewBox="0 0 636 229.72"><defs><style>.cls-1{fill:#fff;}.cls-2{fill:#22c1e0;}</style></defs><path class="cls-1" d="M54.57,220a18.64,18.64,0,0,1-7.9,2c-6.76,0-8.94-4.23-8.94-10.88V181.28h0l.1-14.46V156.66l-9.38,1v53.46c0,12.49,5.72,19.59,17.86,19.36a27.9,27.9,0,0,0,11-2.76Z"/><path class="cls-1" d="M124.64,221.47v-22.9c0-15.57-7.78-26.1-23.7-26.1-7.22,0-14.77,2.73-19.59,10.07v-33.1H62.81v8.26h9.27v63.77H62.46v8.25H90.51v-8.25h-9V199.71c0-10.42,7.44-18.43,18-18.43,10.19,0,15.92,6.19,15.92,17.52v22.67H107.7v8.25H134v-8.25Z"/><path class="cls-1" d="M188.85,195.49c.06.56.1,1.12.13,1.71v-1.71Z"/><path class="cls-1" d="M169.64,171.9c-17.06,0-29.32,12.25-29.32,29.31,0,18,12.26,29.54,29.76,29.54,8.84,0,18.68-3.32,24.4-10.08h.12L188.29,215c-3.76,4.57-11.55,7.08-18,7.08-10.89,0-19.47-6.51-20.5-16.93h48.09C200.09,182.53,186.93,171.9,169.64,171.9ZM189,197.2c0-.59-.07-1.15-.13-1.71h-38.7c2.21-9.79,10.39-15.14,19.71-15.14,10.51,0,17.86,5.35,19,15.14H189Z"/><path class="cls-1" d="M292.84,220.56v9.16h-28.4v-9.16h10c-2.29-4.93-4.24-9.84-6.18-14.2l-.62-1.4-3.39-7.54c-.27-.64-.54-1.27-.83-1.92-4.52-10.63-9.06-21.74-15.31-36.21-5.78,12.94-13.63,30.47-16.21,36.21l-.86,1.92L227.72,205l-.6,1.4c-1.83,4.23-4.12,9.16-6.3,14.2h9.73v9.16H202.26v-9.16h7.79l19.71-43.64,8.46-18.32H229v-9h24.72L274,195.5l4.19,9.46,6.88,15.6Z"/><path class="cls-1" d="M323.19,196.51c-7.11-.81-14.09-2.29-14.2-8-.12-6.08,6.18-9.16,14.09-9.05,3.43,0,9.73.8,12.7,2.4l.46,8.48h8l.22-13.85a47.86,47.86,0,0,0-21.53-5c-10.88-.12-23.24,4.91-23.13,17.06s11.92,14.65,22.79,16.14c8.81.92,15.8,2.75,15.68,9.05-.22,7.44-9.16,8.7-14.77,8.7a33.92,33.92,0,0,1-15.22-3.66l-.35-8.48h-8.24l-.23,14.08c8,4.71,14.66,6.76,23.82,6.76,12.82,0,23.93-5.38,24.15-17.07C347.69,199.84,333.6,197.88,323.19,196.51Z"/><path class="cls-1" d="M417.3,221.47v-22.9c0-15.57-7.78-26.1-23.7-26.1-7.22,0-14.77,2.73-19.59,10.07v-33.1H355.47v8.26h9.27v63.77h-9.62v8.25h28.05v-8.25h-9V199.71c0-10.42,7.44-18.43,18-18.43,10.19,0,15.92,6.19,15.92,17.52v22.67h-7.67v8.25H426.7v-8.25Z"/><path class="cls-1" d="M493.11,221.47v-22.9c0-15.57-7.79-26.1-23.71-26.1-7.22,0-14.78,2.73-19.58,10.07v-33.1H431.26v8.26h9.27v63.77h-9.6v8.25H459v-8.25h-9.05V199.71c0-10.42,7.45-18.43,18-18.43,10.2,0,15.92,6.19,15.92,17.52v22.67h-7.66v8.25h26.33v-8.25Z"/><path class="cls-1" d="M568.22,221.35V181.63h9.16V173H559.17l-.11,10.07c-4.14-7.33-12.48-11-21-11-16.27,0-29.2,11-29.2,29.31,0,18.56,12.71,29.66,29.09,29.66,7.77,0,16.36-2.75,20.83-10.53l1,9.16H577.6v-8.37Zm-29.77,1.15c-11.34,0-20.28-8.13-20.28-20.72s8.94-20.61,20.15-20.61c14.2,0,21.42,10,21.07,21.18C559.06,212.88,551.62,222.5,538.45,222.5Z"/><path class="cls-1" d="M622.59,172c-7,0-14,2.51-17.62,8.7l-1-7.67H586.52v8.35h9.27v40.08H586.3v8.25h28.05v-8.25h-9.16V198.12c0-10.77,5.95-16.73,16.72-17a17.7,17.7,0,0,1,9.86,3.08l4.23-8A23.38,23.38,0,0,0,622.59,172Z"/><path class="cls-1" d="M189,195.49v1.71c0-.59-.07-1.15-.13-1.71Z"/><polygon class="cls-2" points="28.46 195.48 11.28 195.48 11.28 99.05 284.99 99.05 284.99 195.49 274 195.49 278.17 204.96 294.44 204.96 294.44 89.6 213.91 89.6 210.18 80.15 86.51 80.15 82.1 89.6 1.81 89.6 1.81 204.96 28.46 204.96 28.46 195.48"/><polygon class="cls-2" points="172.87 70.68 123 70.68 147.93 0 172.87 70.68"/><polygon class="cls-2" points="101.66 39.66 89.49 70.68 113.83 70.68 101.66 39.66"/><polygon class="cls-2" points="194.16 39.66 181.88 70.68 206.44 70.68 194.16 39.66"/></svg>