<?xml version="1.0" encoding="utf-8"?>
<!-- Generator: Adobe Illustrator 26.0.1, SVG Export Plug-In . SVG Version: 6.00 Build 0)  -->
<svg version="1.1" id="Layer_1" xmlns="http://www.w3.org/2000/svg" xmlns:xlink="http://www.w3.org/1999/xlink" x="0px" y="0px"
	 viewBox="0 0 636 229.7" style="enable-background:new 0 0 636 229.7;" xml:space="preserve">
<style type="text/css">
	.st0{fill:#FFFFFF;stroke:#FFFFFF;stroke-miterlimit:10;}
	.st1{fill:#22C1E0;stroke:#22C1E0;stroke-width:3;stroke-miterlimit:10;}
</style>
<path class="st0" d="M54.6,219c-2.5,1.2-5.2,1.9-7.9,2c-6.8,0-8.9-4.2-8.9-10.9v-29.8l0,0l0.1-14.5v-10.2l-9.4,1v53.5
	c0,12.5,5.7,19.6,17.9,19.4c3.8-0.2,7.6-1.1,11-2.8L54.6,219z"/>
<path class="st0" d="M124.6,220.5v-22.9c0-15.6-7.8-26.1-23.7-26.1c-7.2,0-14.8,2.7-19.6,10.1v-33.1H62.8v8.3h9.3v63.8h-9.6v8.2
	h28.1v-8.2h-9v-21.8c0-10.4,7.4-18.4,18-18.4c10.2,0,15.9,6.2,15.9,17.5v22.7h-7.7v8.2H134v-8.2H124.6z"/>
<path class="st0" d="M188.9,194.5c0.1,0.6,0.1,1.1,0.1,1.7v-1.7H188.9z"/>
<path class="st0" d="M169.6,170.9c-17.1,0-29.3,12.2-29.3,29.3c0,18,12.3,29.5,29.8,29.5c8.8,0,18.7-3.3,24.4-10.1h0.1l-6.3-5.7
	c-3.8,4.6-11.6,7.1-18,7.1c-10.9,0-19.5-6.5-20.5-16.9h48.1C200.1,181.5,186.9,170.9,169.6,170.9z M189,196.2c0-0.6-0.1-1.1-0.1-1.7
	h-38.7c2.2-9.8,10.4-15.1,19.7-15.1c10.5,0,17.9,5.4,19,15.1h0.1V196.2z"/>
<path class="st0" d="M292.8,219.6v9.2h-28.4v-9.2h10c-2.3-4.9-4.2-9.8-6.2-14.2l-0.6-1.4l-3.4-7.5c-0.3-0.6-0.5-1.3-0.8-1.9
	c-4.5-10.6-9.1-21.7-15.3-36.2c-5.8,12.9-13.6,30.5-16.2,36.2l-0.9,1.9l-3.3,7.6l-0.6,1.4c-1.8,4.2-4.1,9.2-6.3,14.2h9.7v9.2h-28.3
	v-9.2h7.8l19.7-43.6l8.5-18.3H229v-9h24.7l20.3,45.9l4.2,9.5l6.9,15.6L292.8,219.6z"/>
<path class="st0" d="M323.2,195.5c-7.1-0.8-14.1-2.3-14.2-8c-0.1-6.1,6.2-9.2,14.1-9.1c3.4,0,9.7,0.8,12.7,2.4l0.5,8.5h8l0.2-13.9
	c-6.7-3.3-14.1-5-21.5-5c-10.9-0.1-23.2,4.9-23.1,17.1s11.9,14.6,22.8,16.1c8.8,0.9,15.8,2.8,15.7,9.1c-0.2,7.4-9.2,8.7-14.8,8.7
	c-5.3,0-10.5-1.3-15.2-3.7l-0.4-8.5h-8.2l-0.2,14.1c8,4.7,14.7,6.8,23.8,6.8c12.8,0,23.9-5.4,24.1-17.1
	C347.7,198.8,333.6,196.9,323.2,195.5z"/>
<path class="st0" d="M417.3,220.5v-22.9c0-15.6-7.8-26.1-23.7-26.1c-7.2,0-14.8,2.7-19.6,10.1v-33.1h-18.5v8.3h9.3v63.8h-9.6v8.2h28
	v-8.2h-9v-21.8c0-10.4,7.4-18.4,18-18.4c10.2,0,15.9,6.2,15.9,17.5v22.7h-7.7v8.2h26.3v-8.2H417.3z"/>
<path class="st0" d="M493.1,220.5v-22.9c0-15.6-7.8-26.1-23.7-26.1c-7.2,0-14.8,2.7-19.6,10.1v-33.1h-18.6v8.3h9.3v63.8h-9.6v8.2
	H459v-8.2h-9v-21.8c0-10.4,7.5-18.4,18-18.4c10.2,0,15.9,6.2,15.9,17.5v22.7h-7.7v8.2h26.3v-8.2H493.1z"/>
<path class="st0" d="M568.2,220.4v-39.7h9.2V172h-18.2l-0.1,10.1c-4.1-7.3-12.5-11-21-11c-16.3,0-29.2,11-29.2,29.3
	c0,18.6,12.7,29.7,29.1,29.7c7.8,0,16.4-2.8,20.8-10.5l1,9.2h17.8v-8.4L568.2,220.4z M538.4,221.5c-11.3,0-20.3-8.1-20.3-20.7
	s8.9-20.6,20.2-20.6c14.2,0,21.4,10,21.1,21.2C559.1,211.9,551.6,221.5,538.4,221.5L538.4,221.5z"/>
<path class="st0" d="M622.6,171c-7,0-14,2.5-17.6,8.7l-1-7.7h-17.5v8.4h9.3v40.1h-9.5v8.2h28v-8.2h-9.2v-23.3c0-10.8,6-16.7,16.7-17
	c3.5,0,7,1.1,9.9,3.1l4.2-8C632.1,172.5,627.4,171,622.6,171z"/>
<path class="st0" d="M189,194.5v1.7c0-0.6-0.1-1.1-0.1-1.7H189z"/>
<polygon class="st1" points="28.5,195.5 11.3,195.5 11.3,99.1 285,99.1 285,195.5 274,195.5 278.2,205 294.4,205 294.4,89.6 
	213.9,89.6 210.2,80.2 86.5,80.2 82.1,89.6 1.8,89.6 1.8,205 28.5,205 "/>
<polygon class="st1" points="172.9,70.7 123,70.7 147.9,0 "/>
<polygon class="st1" points="101.7,39.7 89.5,70.7 113.8,70.7 "/>
<polygon class="st1" points="194.2,39.7 181.9,70.7 206.4,70.7 "/>
</svg>
