<svg id="Layer_1" data-name="Layer 1" xmlns="http://www.w3.org/2000/svg" viewBox="0 0 485.66 300"><defs><style>.cls-1{fill:#1b1b1b;}.cls-2{fill:#2aafc3;}.cls-3{fill:#ededed;}</style></defs><rect class="cls-1" width="485.66" height="300"/><path class="cls-2" d="M316.37,73.53l0,.91c0,.29,0,.58,0,.87,0,0,0,0,0,.07s0,0,0,.07v0c0,.19,0,.38,0,.57s0,.38-.05.57-.06.61-.1.92l0,.3c0,.26-.07.51-.1.77a.06.06,0,0,1,0,0c0,.24-.07.48-.1.73s-.08.49-.13.74a.17.17,0,0,1,0,.07l-.09.5a.09.09,0,0,1,0,0c0,.07,0,.15,0,.23l-.09.43-.18.87-.09.4,0,.09c0,.1-.05.2-.08.31a.44.44,0,0,1,0,.1,3,3,0,0,1-.08.32c0,.16-.09.32-.13.48s0,.07,0,.11l0,.09c0,.17-.09.33-.14.5s-.05.19-.08.28-.1.35-.16.52-.07.25-.11.37-.15.47-.23.7-.15.46-.23.68-.09.23-.13.35-.13.36-.2.54l-.08.2c-.08.22-.17.43-.25.65s-.06.15-.1.23-.18.44-.28.66a.14.14,0,0,1,0,.06c-.11.26-.22.51-.34.76l-.05.12c-.09.2-.19.41-.29.61s-.08.17-.13.26-.2.42-.31.63l-.35.67c-.07.15-.15.29-.23.43s-.17.33-.27.49c-.33.59-.68,1.18-1,1.76-.12.2-.25.4-.38.6-.69,1.06-1.43,2.09-2.23,3.09l-.48.59c-.19.24-.4.48-.6.71-6.8,7.86-18.08,12.41-27.79,13.08v7.7h36.33c.95,0,1.28.64.74,1.42l-9,12.84a1,1,0,0,1-.73.39H278.31v35.21h2.08c.59,0,.79.39.46.88l-2.54,3.61-13.62,19.45c-.55.79-1,.65-1-.32V136.07H222V194.9c0,1-.45,1.11-1,.32l-13.62-19.45-2.54-3.63c-.34-.48-.13-.87.45-.87h2.09v-35.2H180a1,1,0,0,1-.74-.39l-8.94-12.84c-.54-.78-.21-1.42.74-1.42h36.33v-7.7c-9.71-.67-21-5.22-27.79-13.08-.2-.23-.4-.47-.59-.71s-.33-.39-.48-.59a3,3,0,0,1-.22-.28c-.17-.21-.34-.42-.5-.64s-.37-.51-.55-.76c-.33-.47-.66-.94-1-1.41l-.26-.4c-.12-.18-.23-.36-.34-.54-.2-.33-.4-.66-.59-1-.1-.17-.21-.35-.3-.53s-.09-.16-.13-.24-.25-.45-.37-.67l-.42-.82v0c-.13-.27-.27-.55-.4-.83s-.22-.46-.32-.7l-.15-.33c-.08-.18-.16-.36-.23-.55a1.89,1.89,0,0,1-.11-.25c-.07-.18-.15-.35-.22-.53s-.09-.23-.13-.35-.17-.43-.25-.64l0-.09c-.09-.23-.17-.47-.26-.7L171.37,86c-.06-.21-.13-.42-.19-.63a1.81,1.81,0,0,1-.09-.31c-.07-.2-.12-.39-.17-.59a2,2,0,0,1-.07-.23c-.06-.21-.11-.42-.17-.63s-.05-.19-.07-.28-.07-.29-.11-.44l-.12-.53c0-.07,0-.14,0-.22s0-.13-.05-.2-.07-.32-.1-.47V81.4s0-.05,0-.07,0,0,0-.08-.06-.35-.1-.52l-.09-.47c0-.16,0-.32-.08-.48v0l-.07-.47a2.36,2.36,0,0,1,0-.28c0-.18-.06-.37-.08-.56l-.09-.71v0a.15.15,0,0,1,0-.07l-.06-.49c0-.16,0-.32,0-.48s0-.37-.05-.55v0c0-.19,0-.38,0-.57v-.16s0,0,0,0c0-.29,0-.58,0-.88l0-.9c0-.29,0-.57,0-.86s0-.53,0-.8v0c0-.26,0-.51,0-.76V71c0-.46.05-.92.08-1.39s.05-.7.09-1.06.06-.64.1-1c.16-1.31.38-2.61.67-3.9,1.08-4.92,2.19-4.84,2.46.19A40.82,40.82,0,0,0,207.34,102h0a40.69,40.69,0,0,0,12.07,0l1.09-.17a1.21,1.21,0,0,1,1.46,1.23v18.34h41.72V103.08a1.2,1.2,0,0,1,1.45-1.23l1.1.17a40.63,40.63,0,0,0,12.06,0h0A40.84,40.84,0,0,0,313,63.83c.27-5,1.38-5.11,2.46-.19.11.52.22,1,.31,1.55a1.85,1.85,0,0,0,0,.23.77.77,0,0,1,0,.15,1.13,1.13,0,0,1,0,.18c0,.1,0,.2.05.3s.05.3.07.45,0,0,0,0,0,.21,0,.31v0c0,.18,0,.35.07.53a.25.25,0,0,1,0,.09.77.77,0,0,1,0,.15c0,.1,0,.2,0,.3l0,.31c.06.52.1,1.05.13,1.57,0,.21,0,.42,0,.63s0,.67,0,1C316.38,72.13,316.39,72.83,316.37,73.53Z"/><path class="cls-2" d="M255.88,144.35l-9.11,42.71a1.29,1.29,0,0,1-1.22,1h-5.46a1.31,1.31,0,0,1-1.22-1l-9.1-42.71a.53.53,0,0,1,.54-.67h25A.53.53,0,0,1,255.88,144.35Z"/><path class="cls-3" d="M141.72,214.1v-5h19.05v5Zm6.84,18.52V211.08h5.37v21.54Z"/><path class="cls-3" d="M163.56,232.62V209.13H169v23.49Zm4.69-7.89v-5h4.37a3.76,3.76,0,0,0,1.67-.37,3,3,0,0,0,1.16-1,2.67,2.67,0,0,0,.42-1.46,2.62,2.62,0,0,0-.92-2,3.58,3.58,0,0,0-2.44-.81h-4.26v-4.93l4.53,0a9.61,9.61,0,0,1,4.53,1,7.63,7.63,0,0,1,3.1,2.79,7.83,7.83,0,0,1,0,8.12,7.74,7.74,0,0,1-3.14,2.76,10.18,10.18,0,0,1-4.58,1Zm8.06,7.89L171,223.29l4.06-3,7.42,12.32Z"/><path class="cls-3" d="M183.75,232.62l9.13-23.49h5.36l-8.78,23.49Zm4.3-4.47v-4.76h15.46v4.76Zm14,4.47-8.79-23.49h5.37l9.12,23.49Z"/><path class="cls-3" d="M210.32,232.62V209.13h5.4v23.49Zm2.82-18.39v-5.1H218v5.1Zm0,18.39v-5.1H218v5.1Zm4.86,0v-5.1a8.07,8.07,0,0,0,2.86-.49,6.9,6.9,0,0,0,2.28-1.37,6.27,6.27,0,0,0,1.51-2.12,7,7,0,0,0,0-5.33,6.27,6.27,0,0,0-1.51-2.12,6.9,6.9,0,0,0-2.28-1.37,8.07,8.07,0,0,0-2.86-.49v-5.1a14.05,14.05,0,0,1,6.6,1.51A11.8,11.8,0,0,1,229.06,227a11.52,11.52,0,0,1-4.48,4.16A13.92,13.92,0,0,1,218,232.62Z"/><path class="cls-3" d="M234,232.62V209.13h5.4v23.49Zm3.93-18.52v-5h11.37v5Zm0,9.09v-4.8h9.76v4.8Zm0,9.43v-5h11.54v5Z"/><path class="cls-3" d="M254.74,232.62V209.13h2.15v23.49Zm2.15-11.14v-1.95h14.22v1.95Zm14.22,11.14V209.13h2.15v23.49Z"/><path class="cls-3" d="M279.63,224.4V209.13h2.15V224.4Zm8.79,8.75a9.11,9.11,0,0,1-4.55-1.12,8.08,8.08,0,0,1-3.12-3.1,9,9,0,0,1-1.12-4.53h2.15a7.14,7.14,0,0,0,.85,3.52,6.29,6.29,0,0,0,2.38,2.42,7.44,7.44,0,0,0,7,0,6.22,6.22,0,0,0,2.38-2.42,7.14,7.14,0,0,0,.86-3.52h2.15a8.91,8.91,0,0,1-1.14,4.53,8.14,8.14,0,0,1-3.17,3.1A9.47,9.47,0,0,1,288.42,233.15Zm6.81-8.75V209.13h2.15V224.4Z"/><path class="cls-3" d="M303.75,232.62V209.13h2.15v23.49Zm17.11,0-16.61-22.28,1.65-1.21,16.6,22.25Zm0,0V209.13H323v23.49Z"/><path class="cls-3" d="M326.7,211.08v-2h17.44v2Zm7.65,21.54V211.08h2.14v21.54Z"/></svg>