<?xml version="1.0" encoding="utf-8"?>
<!-- Generator: Adobe Illustrator 26.0.1, SVG Export Plug-In . SVG Version: 6.00 Build 0)  -->
<svg version="1.1"
	 id="Layer_1" shape-rendering="geometricPrecision" text-rendering="geometricPrecision" image-rendering="optimizeQuality"
	 xmlns="http://www.w3.org/2000/svg" xmlns:xlink="http://www.w3.org/1999/xlink" x="0px" y="0px" viewBox="0 0 64 64"
	 style="enable-background:new 0 0 64 64;" xml:space="preserve">
<style type="text/css">
	.st0{fill-rule:evenodd;clip-rule:evenodd;fill:#F0F8FF;}
</style>
<path class="st0" d="M64,12.2c-2.4,1.1-4.9,1.8-7.5,2.1c2.7-1.6,4.8-4.2,5.8-7.3c-2.5,1.5-5.4,2.6-8.3,3.2C51.5,7.6,48.1,6,44.3,6
	c-7.3,0-13.1,5.9-13.1,13.1c0,1,0.1,2,0.3,3C20.6,21.6,11,16.3,4.5,8.4c-1.2,2-1.8,4.3-1.8,6.6c0,4.5,2.3,8.6,5.8,10.9
	c-2.2-0.1-4.2-0.7-6-1.6v0.2c0,6.4,4.5,11.7,10.5,12.9c-1.1,0.3-2.3,0.5-3.5,0.5c-0.8,0-1.7-0.1-2.5-0.2c1.7,5.2,6.5,9,12.3,9.1
	c-4.5,3.5-10.1,5.6-16.3,5.6c-1.1,0-2.1-0.1-3.1-0.2C5.8,55.8,12.7,58,20.1,58c24.1,0,37.4-20,37.4-37.4c0-0.6,0-1.1,0-1.7
	C60,17.1,62.2,14.8,64,12.2L64,12.2L64,12.2z"/>
</svg>
