<svg id="Layer_1" data-name="Layer 1" xmlns="http://www.w3.org/2000/svg" viewBox="0 0 382.66 190.1"><defs><style>.cls-1{fill:#1e1e1e;}.cls-2{fill:#ededed;}.cls-3{fill:#715ba7;}.cls-4{fill:#7acab4;}.cls-5{fill:#22c1e0;}.cls-6{fill:#282828;}</style></defs><rect class="cls-1" width="382.66" height="190.1"/><path class="cls-2" d="M174.07,74.06h3.47a44.75,44.75,0,0,0-3.36,10,54.9,54.9,0,0,0-1.26,11.83,60.45,60.45,0,0,0,1,10.89,44.3,44.3,0,0,0,2.62,9.22h-3.3a44.63,44.63,0,0,1-2.52-9,59.37,59.37,0,0,1-.94-10.74,61.18,61.18,0,0,1,1.11-11.71A50.65,50.65,0,0,1,174.07,74.06Z"/><path class="cls-2" d="M184.57,77.86A2.49,2.49,0,0,1,187,80.34a2.46,2.46,0,0,1-4.2,1.74,2.47,2.47,0,0,1,0-3.49A2.34,2.34,0,0,1,184.57,77.86Zm-1.49,9.59h3v23.27h-3Z"/><path class="cls-2" d="M196.63,76.37h5.84l-6.35,11.81c-.39.71-.85,1.07-1.39,1.07a1.23,1.23,0,0,1-.91-.37,1.25,1.25,0,0,1-.38-.91,1.62,1.62,0,0,1,.07-.47Z"/><path class="cls-2" d="M229,87.45v23.27H226v-4a12.89,12.89,0,0,1-4.23,3.45,11.82,11.82,0,0,1-13.56-2.43,12,12,0,0,1-3.5-8.72,11.81,11.81,0,0,1,3.53-8.6,11.5,11.5,0,0,1,8.49-3.57,10.89,10.89,0,0,1,5.19,1.22A11.74,11.74,0,0,1,226,91.73V87.45Zm-12,2.29A9,9,0,0,0,212.36,91,8.92,8.92,0,0,0,209,94.42a9.43,9.43,0,0,0,0,9.4,9.1,9.1,0,0,0,3.39,3.49,8.75,8.75,0,0,0,4.56,1.25,9.32,9.32,0,0,0,4.66-1.24A8.64,8.64,0,0,0,225,104a9.49,9.49,0,0,0,1.19-4.77,9.28,9.28,0,0,0-2.66-6.75A8.81,8.81,0,0,0,217,89.74Z"/><path class="cls-2" d="M235.88,110.72V78.46h3v13A12.64,12.64,0,0,1,243.09,88a11.82,11.82,0,0,1,13.54,2.44,12,12,0,0,1,3.49,8.7,11.81,11.81,0,0,1-3.52,8.62,11.5,11.5,0,0,1-8.49,3.57A10.79,10.79,0,0,1,243,110.1a12,12,0,0,1-4.08-3.65v4.27Zm12-2.28a9,9,0,0,0,4.61-1.23,9.11,9.11,0,0,0,3.37-3.46,9.5,9.5,0,0,0,0-9.44,9.17,9.17,0,0,0-3.39-3.49,8.72,8.72,0,0,0-4.53-1.25,9.29,9.29,0,0,0-4.67,1.25,8.65,8.65,0,0,0-3.39,3.37A9.59,9.59,0,0,0,238.66,99a9.3,9.3,0,0,0,2.66,6.76A8.79,8.79,0,0,0,247.86,108.44Z"/><path class="cls-2" d="M265.13,78.46h3v32.26h-3Z"/><path class="cls-2" d="M294,103l2.52,1.33a13.46,13.46,0,0,1-2.87,3.93,11.26,11.26,0,0,1-3.66,2.28,12.75,12.75,0,0,1-4.6.78,11.12,11.12,0,0,1-8.91-3.73,12.6,12.6,0,0,1-3.21-8.44,12.4,12.4,0,0,1,2.72-7.89,11.1,11.1,0,0,1,9.23-4.41,11.48,11.48,0,0,1,9.5,4.51,12.59,12.59,0,0,1,2.57,8H276.3a9.44,9.44,0,0,0,2.59,6.65,8.25,8.25,0,0,0,6.19,2.59,10,10,0,0,0,3.46-.61,9.18,9.18,0,0,0,2.86-1.65A14.21,14.21,0,0,0,294,103Zm0-6.27a9.94,9.94,0,0,0-1.75-3.83,8.31,8.31,0,0,0-3-2.31,9.37,9.37,0,0,0-4-.88,8.52,8.52,0,0,0-5.89,2.21,9.91,9.91,0,0,0-2.72,4.81Z"/><path class="cls-2" d="M304.17,116h-3.46a44.24,44.24,0,0,0,3.37-10,55.54,55.54,0,0,0,1.25-11.83,61.37,61.37,0,0,0-.95-10.89,44.46,44.46,0,0,0-2.63-9.22h3.3a42.64,42.64,0,0,1,2.53,9,61.74,61.74,0,0,1-.18,22.44A50.65,50.65,0,0,1,304.17,116Z"/><path class="cls-3" d="M82.25,78.25l10.14,18.2q.8-1.36,1.77-3.09c.64-1.14,1.23-2.22,1.76-3.23L97.62,87c.44-.75.85-1.5,1.23-2.23s.78-1.47,1.22-2.2.8-1.41,1.25-2.17.89-1.47,1.3-2.16h5.66c.25,0,.51,0,.77,0s.56,0,.88,0L92.29,110.41,83.24,94.33c-.63-1.07-1.25-2.15-1.86-3.25s-1.23-2.19-1.86-3.26q-1.36-2.35-2.69-4.76c-.88-1.6-1.77-3.2-2.69-4.81Z"/><path class="cls-4" d="M154.43,111,147.5,99.8h-4.24V111h-6.79V93.06h16a2.7,2.7,0,0,0,2.05-1,3.09,3.09,0,0,0,.87-2.17V88.15A2.91,2.91,0,0,0,154.5,86a2.85,2.85,0,0,0-2.05-.84h-16V78.25h16a9.46,9.46,0,0,1,3.82.78,9.92,9.92,0,0,1,3.11,2.12,10.29,10.29,0,0,1,2.1,3.14,9.54,9.54,0,0,1,.78,3.86v1.79a9,9,0,0,1-.5,3,10.74,10.74,0,0,1-3.56,5,10.37,10.37,0,0,1-2.83,1.55L162.45,111Z"/><polygon class="cls-5" points="131.53 111.04 101.52 111.04 106.83 99.14 116.57 77.58 131.53 111.04"/><polygon class="cls-6" points="122.35 103.92 110.69 103.92 112.76 99.3 116.54 90.92 122.35 103.92"/></svg>